<svg xmlns="http://www.w3.org/2000/svg" xmlns:xlink="http://www.w3.org/1999/xlink" width="514" height="514" viewBox="0 0 514 514">
  <defs>
    <style>
      .cls-1, .cls-3, .cls-5, .cls-6, .cls-7, .cls-8 {
        stroke: #707070;
      }

      .cls-1 {
        fill: url(#linear-gradient);
      }

      .cls-2 {
        fill: url(#linear-gradient-2);
      }

      .cls-3 {
        fill: url(#linear-gradient-3);
      }

      .cls-4 {
        fill: url(#linear-gradient-4);
      }

      .cls-5 {
        fill: #ffdc4b;
      }

      .cls-6 {
        opacity: 0.478;
      }

      .cls-6, .cls-7, .cls-8 {
        fill: url(#linear-gradient-5);
      }

      .cls-7 {
        opacity: 0.31;
      }

      .cls-8 {
        opacity: 0.261;
      }

      .cls-9 {
        fill: url(#linear-gradient-8);
      }

      .cls-10 {
        fill: #fff;
      }

      .cls-11, .cls-13 {
        stroke: none;
      }

      .cls-12 {
        fill: none;
      }

      .cls-13 {
        fill: #707070;
      }

      .cls-14 {
        filter: url(#clouds);
      }

      .cls-15 {
        filter: url(#Subtraction_1);
      }

      .cls-16 {
        filter: url(#Ellipse_39);
      }

      .cls-17 {
        filter: url(#Subtraction_2);
      }

      .cls-18 {
        filter: url(#Rectangle_11);
      }
    </style>
    <linearGradient id="linear-gradient" x1="0.872" y1="0.093" x2="0.142" y2="0.932" gradientUnits="objectBoundingBox">
      <stop offset="0" stop-color="#7d5dff"/>
      <stop offset="1" stop-color="#29deff"/>
    </linearGradient>
    <filter id="Rectangle_11" x="0" y="0" width="514" height="514" filterUnits="userSpaceOnUse">
      <feOffset dy="50" input="SourceAlpha"/>
      <feGaussianBlur stdDeviation="49.5" result="blur"/>
      <feFlood flood-opacity="0.161"/>
      <feComposite operator="in" in2="blur"/>
      <feComposite in="SourceGraphic"/>
    </filter>
    <linearGradient id="linear-gradient-2" x1="0.881" y1="0.863" x2="0.24" y2="0.176" gradientUnits="objectBoundingBox">
      <stop offset="0" stop-color="#facd0b"/>
      <stop offset="1" stop-color="#ffb7a0"/>
    </linearGradient>
    <filter id="Subtraction_2" x="231.186" y="147.558" width="102.926" height="102.925" filterUnits="userSpaceOnUse">
      <feOffset dy="10" input="SourceAlpha"/>
      <feGaussianBlur stdDeviation="10" result="blur-2"/>
      <feFlood flood-color="#ffddbc"/>
      <feComposite operator="in" in2="blur-2"/>
      <feComposite in="SourceGraphic"/>
    </filter>
    <linearGradient id="linear-gradient-3" x1="0.184" y1="0.127" x2="0.839" y2="0.848" gradientUnits="objectBoundingBox">
      <stop offset="0" stop-color="#ffdb45"/>
      <stop offset="1" stop-color="#ffa68b"/>
    </linearGradient>
    <filter id="Ellipse_39" x="233.157" y="150.157" width="104.685" height="104.685" filterUnits="userSpaceOnUse">
      <feOffset dy="10" input="SourceAlpha"/>
      <feGaussianBlur stdDeviation="10" result="blur-3"/>
      <feFlood flood-color="#ffddbc"/>
      <feComposite operator="in" in2="blur-3"/>
      <feComposite in="SourceGraphic"/>
    </filter>
    <linearGradient id="linear-gradient-4" x1="0.184" y1="0.127" x2="0.839" y2="0.848" gradientUnits="objectBoundingBox">
      <stop offset="0" stop-color="#ffe05d"/>
      <stop offset="1" stop-color="#ffbeaa"/>
    </linearGradient>
    <filter id="Subtraction_1" x="238.785" y="155.786" width="99.058" height="99.056" filterUnits="userSpaceOnUse">
      <feOffset dy="10" input="SourceAlpha"/>
      <feGaussianBlur stdDeviation="10" result="blur-4"/>
      <feFlood flood-color="#ffddbc"/>
      <feComposite operator="in" in2="blur-4"/>
      <feComposite in="SourceGraphic"/>
    </filter>
    <linearGradient id="linear-gradient-5" x1="0.5" x2="0.5" y2="1" gradientUnits="objectBoundingBox">
      <stop offset="0" stop-color="#fff" stop-opacity="0.2"/>
      <stop offset="1" stop-color="#fff"/>
    </linearGradient>
    <linearGradient id="linear-gradient-8" x1="0.5" x2="0.5" y2="1" gradientUnits="objectBoundingBox">
      <stop offset="0" stop-color="#fff"/>
      <stop offset="1" stop-color="#f2f2f2"/>
    </linearGradient>
    <filter id="clouds" x="114.5" y="119.5" width="253.041" height="202" filterUnits="userSpaceOnUse">
      <feOffset input="SourceAlpha"/>
      <feGaussianBlur stdDeviation="20" result="blur-5"/>
      <feFlood flood-color="#fff" flood-opacity="0.2"/>
      <feComposite operator="in" in2="blur-5"/>
      <feComposite in="SourceGraphic"/>
    </filter>
  </defs>
  <g id="Cloudy_sunny" data-name="Cloudy sunny" transform="translate(-9.5 -85.5)">
    <g class="cls-18" transform="matrix(1, 0, 0, 1, 9.5, 85.5)">
      <g id="Rectangle_11-2" data-name="Rectangle 11" class="cls-1" transform="translate(148.5 98.5)">
        <rect class="cls-11" width="217" height="217" rx="72"/>
        <rect class="cls-12" x="0.5" y="0.5" width="216" height="216" rx="71.5"/>
      </g>
    </g>
    <g id="Group_27" data-name="Group 27" transform="translate(1 1)">
      <g id="Group_25" data-name="Group 25" transform="translate(-159 -173)">
        <g id="sun" transform="translate(408 405)">
          <g class="cls-17" transform="matrix(1, 0, 0, 1, -240.5, -147.5)">
            <g id="Subtraction_2-2" data-name="Subtraction 2" class="cls-2" transform="matrix(-0.99, -0.1, 0.1, -0.99, 300.03, 210.48)">
              <path class="cls-11" d="M 16.71548652648926 38.55646896362305 C 13.53653717041016 38.55646896362305 10.47203731536865 37.88912200927734 7.607096672058105 36.57294845581055 C 7.426773071289062 36.49010467529297 7.247439384460449 36.40469741821289 7.069266796112061 36.31682205200195 C 9.551999092102051 37.21360778808594 12.15941143035889 37.6679801940918 14.82755661010742 37.6679801940918 C 17.9110164642334 37.6679801940918 20.90250778198242 37.06396102905273 23.71894645690918 35.8726921081543 C 26.43906784057617 34.72216033935547 28.88188743591309 33.07519149780273 30.97952651977539 30.97752952575684 C 33.07720565795898 28.87984085083008 34.72417831420898 26.43701934814453 35.87469863891602 23.71693992614746 C 37.06597518920898 20.90048027038574 37.67000579833984 17.90899085998535 37.67000579833984 14.8255500793457 C 37.67000579833984 12.15944576263428 37.21613311767578 9.553689956665039 36.32030868530273 7.072097778320312 C 36.40763854980469 7.249266147613525 36.49246215820312 7.427449226379395 36.5748176574707 7.60673999786377 C 37.89071655273438 10.47156047821045 38.55793762207031 13.53550052642822 38.55793762207031 16.71347999572754 C 38.55793762207031 19.66251945495605 37.98051834106445 22.5230598449707 36.84169769287109 25.21562957763672 C 35.74161529541016 27.81665992736816 34.16665649414062 30.15270042419434 32.16056823730469 32.15885162353516 C 30.15445709228516 34.16501998901367 27.8184871673584 35.74003982543945 25.21755599975586 36.84016036987305 C 22.52502632141113 37.97901916503906 19.66451644897461 38.55646896362305 16.71548652648926 38.55646896362305 Z"/>
              <path class="cls-13" d="M 17.18137741088867 38.05154037475586 C 19.89856910705566 37.99399185180664 22.53413963317871 37.43227767944336 25.02277755737305 36.37966156005859 C 27.56411743164062 35.30474853515625 29.84665679931641 33.76570892333984 31.8070068359375 31.8053092956543 C 33.76733779907227 29.84490966796875 35.30631637573242 27.56229019165039 36.38119506835938 25.02086067199707 C 37.43281555175781 22.53443336486816 37.99444961547852 19.90107345581055 38.0528564453125 17.18646430969238 C 37.82104873657227 19.5044002532959 37.24608612060547 21.75817489624023 36.33519744873047 23.91172027587891 C 35.15946578979492 26.6914005279541 33.47651672363281 29.18762969970703 31.33308601379395 31.33109092712402 C 29.18967628479004 33.4744987487793 26.69344711303711 35.15745162963867 23.91372680664062 36.33319091796875 C 21.75790596008301 37.24503707885742 19.50191497802734 37.82022094726562 17.18137741088867 38.05154037475586 M 16.71548652648926 39.05646896362305 C 13.46397686004639 39.05646896362305 10.32924652099609 38.37376022338867 7.398366928100586 37.02730178833008 C 5.992706775665283 36.38151168823242 4.64851713180542 35.5848503112793 3.403146982192993 34.65943908691406 C 2.167586803436279 33.74131011962891 1.02260684967041 32.6915283203125 -3.09631354866724e-06 31.53927040100098 C 2.000466823577881 33.3153190612793 4.274316787719727 34.70438003540039 6.759276866912842 35.6669807434082 C 9.330467224121094 36.66297149658203 12.0450267791748 37.1679801940918 14.82755661010742 37.1679801940918 C 17.84371757507324 37.1679801940918 20.76968765258789 36.57725143432617 23.52416610717773 35.41218948364258 C 26.1846866607666 34.28686904907227 28.57408714294434 32.67588043212891 30.6259765625 30.62397956848145 C 32.67788696289062 28.57205009460449 34.28887557983398 26.18266105651855 35.4141960144043 23.52215957641602 C 36.57926559448242 20.76766967773438 37.17000579833984 17.84171104431152 37.17000579833984 14.8255500793457 C 37.17000579833984 12.04388046264648 36.66507720947266 9.329800605773926 35.66925811767578 6.758690357208252 C 34.70736694335938 4.275150299072266 33.31911849975586 2.001200199127197 31.54306602478027 1.020385752781294e-05 C 32.69639587402344 1.023990154266357 33.74546813964844 2.169250249862671 34.66202545166016 3.403080224990845 C 35.58716583251953 4.648450374603271 36.38359832763672 5.992550373077393 37.02917861938477 7.398040294647217 C 38.37535858154297 10.32877063751221 39.05793762207031 13.46294021606445 39.05793762207031 16.71347999572754 C 39.05793762207031 19.72979927062988 38.46722793579102 22.65586090087891 37.30220794677734 25.410400390625 C 36.17691802978516 28.07102012634277 34.56596755981445 30.46048927307129 32.51412582397461 32.51240158081055 C 30.46225738525391 34.5643310546875 28.0728759765625 36.17533111572266 25.4123363494873 37.3006591796875 C 22.6578369140625 38.46572875976562 19.73178672790527 39.05646896362305 16.71548652648926 39.05646896362305 Z"/>
            </g>
          </g>
          <g class="cls-16" transform="matrix(1, 0, 0, 1, -240.5, -147.5)">
            <g id="Ellipse_39-2" data-name="Ellipse 39" class="cls-3" transform="translate(263.16 170.16)">
              <circle class="cls-11" cx="22.343" cy="22.343" r="22.343"/>
              <circle class="cls-12" cx="22.343" cy="22.343" r="21.843"/>
            </g>
          </g>
          <g class="cls-15" transform="matrix(1, 0, 0, 1, -240.5, -147.5)">
            <g id="Subtraction_1-2" data-name="Subtraction 1" class="cls-4" transform="translate(268.78 175.79)">
              <path class="cls-11" d="M 16.71548652648926 38.55646896362305 C 13.53653717041016 38.55646896362305 10.47203731536865 37.88912200927734 7.607096672058105 36.57294845581055 C 7.426773071289062 36.49010467529297 7.247439384460449 36.40469741821289 7.069266796112061 36.31682205200195 C 9.551999092102051 37.21360778808594 12.15941143035889 37.6679801940918 14.82755661010742 37.6679801940918 C 17.9110164642334 37.6679801940918 20.90250778198242 37.06396102905273 23.71894645690918 35.8726921081543 C 26.43906784057617 34.72216033935547 28.88188743591309 33.07519149780273 30.97952651977539 30.97752952575684 C 33.07720565795898 28.87984085083008 34.72417831420898 26.43701934814453 35.87469863891602 23.71693992614746 C 37.06597518920898 20.90048027038574 37.67000579833984 17.90899085998535 37.67000579833984 14.8255500793457 C 37.67000579833984 12.15944576263428 37.21613311767578 9.553689956665039 36.32030868530273 7.072097778320312 C 36.40763854980469 7.249266147613525 36.49246215820312 7.427449226379395 36.5748176574707 7.60673999786377 C 37.89071655273438 10.47156047821045 38.55793762207031 13.53550052642822 38.55793762207031 16.71347999572754 C 38.55793762207031 19.66251945495605 37.98051834106445 22.5230598449707 36.84169769287109 25.21562957763672 C 35.74161529541016 27.81665992736816 34.16665649414062 30.15270042419434 32.16056823730469 32.15885162353516 C 30.15445709228516 34.16501998901367 27.8184871673584 35.74003982543945 25.21755599975586 36.84016036987305 C 22.52502632141113 37.97901916503906 19.66451644897461 38.55646896362305 16.71548652648926 38.55646896362305 Z"/>
              <path class="cls-13" d="M 17.18137741088867 38.05154037475586 C 19.89856910705566 37.99399185180664 22.53413963317871 37.43227767944336 25.02277755737305 36.37966156005859 C 27.56411743164062 35.30474853515625 29.84665679931641 33.76570892333984 31.8070068359375 31.8053092956543 C 33.76733779907227 29.84490966796875 35.30631637573242 27.56229019165039 36.38119506835938 25.02086067199707 C 37.43281555175781 22.53443336486816 37.99444961547852 19.90107345581055 38.0528564453125 17.18646430969238 C 37.82104873657227 19.5044002532959 37.24608612060547 21.75817489624023 36.33519744873047 23.91172027587891 C 35.15946578979492 26.6914005279541 33.47651672363281 29.18762969970703 31.33308601379395 31.33109092712402 C 29.18967628479004 33.4744987487793 26.69344711303711 35.15745162963867 23.91372680664062 36.33319091796875 C 21.75790596008301 37.24503707885742 19.50191497802734 37.82022094726562 17.18137741088867 38.05154037475586 M 16.71548652648926 39.05646896362305 C 13.46397686004639 39.05646896362305 10.32924652099609 38.37376022338867 7.398366928100586 37.02730178833008 C 5.992706775665283 36.38151168823242 4.64851713180542 35.5848503112793 3.403146982192993 34.65943908691406 C 2.167586803436279 33.74131011962891 1.02260684967041 32.6915283203125 -3.09631354866724e-06 31.53927040100098 C 2.000466823577881 33.3153190612793 4.274316787719727 34.70438003540039 6.759276866912842 35.6669807434082 C 9.330467224121094 36.66297149658203 12.0450267791748 37.1679801940918 14.82755661010742 37.1679801940918 C 17.84371757507324 37.1679801940918 20.76968765258789 36.57725143432617 23.52416610717773 35.41218948364258 C 26.1846866607666 34.28686904907227 28.57408714294434 32.67588043212891 30.6259765625 30.62397956848145 C 32.67788696289062 28.57205009460449 34.28887557983398 26.18266105651855 35.4141960144043 23.52215957641602 C 36.57926559448242 20.76766967773438 37.17000579833984 17.84171104431152 37.17000579833984 14.8255500793457 C 37.17000579833984 12.04388046264648 36.66507720947266 9.329800605773926 35.66925811767578 6.758690357208252 C 34.70736694335938 4.275150299072266 33.31911849975586 2.001200199127197 31.54306602478027 1.020385752781294e-05 C 32.69639587402344 1.023990154266357 33.74546813964844 2.169250249862671 34.66202545166016 3.403080224990845 C 35.58716583251953 4.648450374603271 36.38359832763672 5.992550373077393 37.02917861938477 7.398040294647217 C 38.37535858154297 10.32877063751221 39.05793762207031 13.46294021606445 39.05793762207031 16.71347999572754 C 39.05793762207031 19.72979927062988 38.46722793579102 22.65586090087891 37.30220794677734 25.410400390625 C 36.17691802978516 28.07102012634277 34.56596755981445 30.46048927307129 32.51412582397461 32.51240158081055 C 30.46225738525391 34.5643310546875 28.0728759765625 36.17533111572266 25.4123363494873 37.3006591796875 C 22.6578369140625 38.46572875976562 19.73178672790527 39.05646896362305 16.71548652648926 39.05646896362305 Z"/>
            </g>
          </g>
          <g id="Rectangle_3" data-name="Rectangle 3" class="cls-5" transform="translate(0 42.168)">
            <rect class="cls-11" width="10.07" height="6.294" rx="3.147"/>
            <rect class="cls-12" x="0.5" y="0.5" width="9.07" height="5.294" rx="2.647"/>
          </g>
          <g id="Rectangle_4" data-name="Rectangle 4" class="cls-5" transform="translate(48.462) rotate(90)">
            <rect class="cls-11" width="10.07" height="6.294" rx="3.147"/>
            <rect class="cls-12" x="0.5" y="0.5" width="9.07" height="5.294" rx="2.647"/>
          </g>
          <g id="Rectangle_5" data-name="Rectangle 5" class="cls-5" transform="translate(79.93 42.168)">
            <rect class="cls-11" width="10.07" height="6.294" rx="3.147"/>
            <rect class="cls-12" x="0.5" y="0.5" width="9.07" height="5.294" rx="2.647"/>
          </g>
          <g id="Rectangle_6" data-name="Rectangle 6" class="cls-5" transform="translate(14.876 11.684) rotate(45)">
            <rect class="cls-11" width="10.07" height="6.294" rx="3.147"/>
            <rect class="cls-12" x="0.5" y="0.5" width="9.07" height="5.294" rx="2.647"/>
          </g>
          <g id="Rectangle_7" data-name="Rectangle 7" class="cls-5" transform="translate(48.462 79.93) rotate(90)">
            <rect class="cls-11" width="10.07" height="6.294" rx="3.147"/>
            <rect class="cls-12" x="0.5" y="0.5" width="9.07" height="5.294" rx="2.647"/>
          </g>
          <g id="Rectangle_8" data-name="Rectangle 8" class="cls-5" transform="translate(79.575 16.135) rotate(135)">
            <rect class="cls-11" width="10.07" height="6.294" rx="3.147"/>
            <rect class="cls-12" x="0.5" y="0.5" width="9.07" height="5.294" rx="2.647"/>
          </g>
          <g id="Rectangle_9" data-name="Rectangle 9" class="cls-5" transform="translate(71.748 67.927) rotate(45)">
            <rect class="cls-11" width="9.441" height="6.294" rx="3.147"/>
            <rect class="cls-12" x="0.5" y="0.5" width="8.441" height="5.294" rx="2.647"/>
          </g>
          <g id="Rectangle_10" data-name="Rectangle 10" class="cls-5" transform="translate(23.147 71.933) rotate(135)">
            <rect class="cls-11" width="10.07" height="6.294" rx="3.147"/>
            <rect class="cls-12" x="0.5" y="0.5" width="9.07" height="5.294" rx="2.647"/>
          </g>
        </g>
        <g id="Ellipse_44" data-name="Ellipse 44" class="cls-6" transform="translate(438.839 442.133)">
          <circle class="cls-11" cx="1.573" cy="1.573" r="1.573"/>
          <circle class="cls-12" cx="1.573" cy="1.573" r="1.073"/>
        </g>
        <g id="Ellipse_45" data-name="Ellipse 45" class="cls-7" transform="translate(453.315 435.839)">
          <circle class="cls-11" cx="3.147" cy="3.147" r="3.147"/>
          <circle class="cls-12" cx="3.147" cy="3.147" r="2.647"/>
        </g>
        <g id="Ellipse_46" data-name="Ellipse 46" class="cls-8" transform="translate(444.504 455.979)">
          <circle class="cls-11" cx="2.517" cy="2.517" r="2.517"/>
          <circle class="cls-12" cx="2.517" cy="2.517" r="2.017"/>
        </g>
      </g>
      <g id="Group_26" data-name="Group 26" transform="translate(17 3)">
        <g class="cls-14" transform="matrix(1, 0, 0, 1, -8.5, 81.5)">
          <g id="clouds-2" data-name="clouds" class="cls-9" transform="translate(174.5 179.5)">
            <path class="cls-11" d="M 107.9388046264648 81.49990081787109 L 53.5509033203125 81.49990081787109 C 52.82345581054688 81.49990081787109 52.08945465087891 81.46411895751953 51.36930465698242 81.39356994628906 L 51.322021484375 81.38893127441406 L 51.27470397949219 81.39328002929688 C 50.50647354125977 81.46403503417969 49.72407150268555 81.49990081787109 48.94920349121094 81.49990081787109 L 25.52040481567383 81.49990081787109 C 22.14255523681641 81.49990081787109 18.86598777770996 80.83844757080078 15.78170490264893 79.533935546875 C 12.80235481262207 78.27378082275391 10.12652206420898 76.46968078613281 7.828505039215088 74.17173004150391 C 5.530455112457275 71.87374877929688 3.726288557052612 69.19791412353516 2.466105222702026 66.21856689453125 C 1.16148853302002 63.13421630859375 0.5000052452087402 59.85751724243164 0.5000052452087402 56.47949981689453 C 0.5000052452087402 53.11528396606445 1.156321883201599 49.8509521484375 2.450705289840698 46.77716827392578 C 3.701005220413208 43.80810165405273 5.491821765899658 41.13861846923828 7.773388385772705 38.84291839599609 C 10.05425548553467 36.54793548583984 12.71182155609131 34.74086761474609 15.6723051071167 33.4719352722168 C 18.73545455932617 32.15896606445312 21.9920711517334 31.4819507598877 25.35167121887207 31.45966720581055 L 25.79290580749512 31.45675086975098 L 25.84487152099609 31.01858329772949 C 26.83628845214844 22.66058349609375 30.85417175292969 14.95226669311523 37.15837097167969 9.313567161560059 C 40.26755523681641 6.532617092132568 43.8055534362793 4.358366966247559 47.67410659790039 2.851233720779419 C 51.67877197265625 1.291067123413086 55.90827178955078 0.5000004172325134 60.2451057434082 0.5000004172325134 C 64.49095153808594 0.5000004172325134 68.63743591308594 1.259150385856628 72.56937408447266 2.756366968154907 C 76.36797332763672 4.202800273895264 79.85780334472656 6.293550491333008 82.94195556640625 8.970517158508301 C 89.17266845703125 14.3786506652832 93.27738952636719 21.82521629333496 94.49995422363281 29.93848419189453 L 94.59700775146484 30.58256721496582 L 95.19412231445312 30.32234954833984 C 98.55976867675781 28.85566711425781 102.1439895629883 28.11199951171875 105.8472061157227 28.11199951171875 C 109.4509735107422 28.11199951171875 112.9466857910156 28.81771659851074 116.2372589111328 30.20955085754395 C 119.4158401489258 31.55401802062988 122.2706069946289 33.47883224487305 124.7222518920898 35.93054962158203 C 127.1739349365234 38.38228225708008 129.0987243652344 41.23713302612305 130.4431762695312 44.41581726074219 C 131.8349914550781 47.70653533935547 132.5407104492188 51.20243453979492 132.5407104492188 54.80640029907227 C 132.5407104492188 61.65625 129.9496917724609 68.16863250732422 125.2449569702148 73.14393615722656 L 125.2305221557617 73.15920257568359 L 125.2174072265625 73.17563629150391 C 123.1921920776367 75.71396636962891 120.5868225097656 77.81121826171875 117.682991027832 79.24063110351562 C 114.6375198364258 80.73976898193359 111.3591079711914 81.49990081787109 107.9388046264648 81.49990081787109 Z"/>
            <path class="cls-13" d="M 107.9388122558594 80.99989318847656 C 111.281867980957 80.99989318847656 114.4859924316406 80.25705718994141 117.4621734619141 78.79202270507812 C 120.3003768920898 77.39491271972656 122.8469543457031 75.34494781494141 124.8265533447266 72.86378479003906 L 124.8527755737305 72.8309326171875 L 124.8816680908203 72.80038452148438 C 129.4982452392578 67.9183349609375 132.0407257080078 61.52795028686523 132.0407257080078 54.80640411376953 C 132.0407257080078 51.26971435546875 131.3482971191406 47.83935165405273 129.982666015625 44.61060333251953 C 128.6634216308594 41.49151229858398 126.7746276855469 38.69007873535156 124.3686981201172 36.28409576416016 C 121.9628067016602 33.87815093994141 119.1614608764648 31.98931312561035 116.04248046875 30.67005920410156 C 112.8138656616211 29.30444145202637 109.3836822509766 28.61200523376465 105.8472061157227 28.61200523376465 C 102.213134765625 28.61200523376465 98.69613647460938 29.34165954589844 95.39386749267578 30.78071403503418 L 94.19964599609375 31.30113220214844 L 94.00553894042969 30.01298713684082 C 92.80068206787109 22.01725959777832 88.75515747070312 14.67833232879639 82.61421203613281 9.348132133483887 C 79.57448577880859 6.709713935852051 76.13504791259766 4.649150371551514 72.39144897460938 3.223641395568848 C 68.51654052734375 1.74815046787262 64.42991638183594 1.000005006790161 60.24510192871094 1.000005006790161 C 55.97061157226562 1.000005006790161 51.80219268798828 1.779604911804199 47.85560989379883 3.317132234573364 C 44.04302978515625 4.802459716796875 40.55609893798828 6.945332050323486 37.49169921875 9.686241149902344 C 31.27839088439941 15.24365997314453 27.3184642791748 22.84053230285645 26.34139251708984 31.07747840881348 L 26.23744583129883 31.95380401611328 L 25.3549919128418 31.95965957641602 C 22.06233787536621 31.98147773742676 18.87088203430176 32.6448974609375 15.86928272247314 33.93147659301758 C 12.96800994873047 35.17504119873047 10.36348247528076 36.94607925415039 8.12802791595459 39.19536972045898 C 5.891900539398193 41.44536972045898 4.136809825897217 44.06153106689453 2.911518812179565 46.97122192382812 C 1.643137097358704 49.98324203491211 1.000009775161743 53.18227767944336 1.000009775161743 56.47949600219727 C 1.000009775161743 59.79024124145508 1.648209810256958 63.00140380859375 2.926609754562378 66.02378845214844 C 4.161591529846191 68.94353485107422 5.929773330688477 71.56594848632812 8.182064056396484 73.81816864013672 C 10.43431854248047 76.07036590576172 13.05673694610596 77.83849334716797 15.97648239135742 79.07342529296875 C 18.99880981445312 80.35173034667969 22.20984649658203 80.99989318847656 25.52041053771973 80.99989318847656 L 48.94919204711914 80.99989318847656 C 49.70893859863281 80.99989318847656 50.47591781616211 80.96472930908203 51.22884750366211 80.89540863037109 L 51.32348251342773 80.88668060302734 L 51.41804504394531 80.89595031738281 C 52.12211990356445 80.96493530273438 52.83971786499023 80.99989318847656 53.55089950561523 80.99989318847656 L 107.9388122558594 80.99989318847656 M 107.9388122558594 81.99989318847656 L 53.55089950561523 81.99989318847656 C 52.79851913452148 81.99989318847656 52.05404663085938 81.96304321289062 51.320556640625 81.89118957519531 C 50.54010009765625 81.96305847167969 49.74840927124023 81.99989318847656 48.94919204711914 81.99989318847656 L 25.52041053771973 81.99989318847656 C 11.42640972137451 81.99989318847656 9.770064025360625e-06 70.57440185546875 9.770064025360625e-06 56.47949600219727 C 9.770064025360625e-06 42.44224166870117 11.33386421203613 31.05258750915527 25.34835433959961 30.95967674255371 C 27.41675567626953 13.5224781036377 42.25219345092773 4.954390078637516e-06 60.24510192871094 4.954390078637516e-06 C 77.85894012451172 4.954390078637516e-06 92.44712066650391 12.95980453491211 94.99437713623047 29.86398696899414 C 98.31908416748047 28.4151496887207 101.9888076782227 27.61200523376465 105.8472061157227 27.61200523376465 C 120.8655014038086 27.61200523376465 133.0407257080078 39.78720474243164 133.0407257080078 54.80640411376953 C 133.0407257080078 62.04055023193359 130.2151489257812 68.61563873291016 125.6082458496094 73.48745727539062 C 121.468879699707 78.67556762695312 115.0922622680664 81.99989318847656 107.9388122558594 81.99989318847656 Z"/>
          </g>
        </g>
        <g id="Subtraction_3" data-name="Subtraction 3" class="cls-10" transform="translate(166 261)">
          <path class="cls-11" d="M 25.8784122467041 81.49990844726562 L 25.52041244506836 81.49990844726562 C 22.14256858825684 81.49990844726562 18.86599731445312 80.83846282958984 15.78171157836914 79.533935546875 C 12.80234050750732 78.27378082275391 10.12649726867676 76.46966552734375 7.828512191772461 74.17172241210938 C 5.530455112457275 71.87371826171875 3.726283550262451 69.19789123535156 2.46611213684082 66.21856689453125 C 1.161497712135315 63.13422012329102 0.5000120401382446 59.85752105712891 0.5000120401382446 56.4794921875 C 0.5000120401382446 53.11524963378906 1.156311988830566 49.85092163085938 2.450697660446167 46.77716445922852 C 3.700997829437256 43.8080940246582 5.491797924041748 41.13863754272461 7.773355007171631 38.84297943115234 C 10.05418300628662 36.54804992675781 12.71176910400391 34.74102020263672 15.67228317260742 33.47210693359375 C 18.73551177978516 32.1591796875 21.99218368530273 31.48220825195312 25.3518123626709 31.45999336242676 L 25.79305458068848 31.45707893371582 L 25.84502601623535 31.01889419555664 C 26.83635520935059 22.66076469421387 30.85419845581055 14.95235061645508 37.15841293334961 9.313607215881348 C 40.26761245727539 6.53262186050415 43.80562591552734 4.358364582061768 47.67414093017578 2.85123610496521 C 51.38817596435547 1.404300808906555 55.29568862915039 0.6188734173774719 59.30276870727539 0.5124958753585815 C 56.90545272827148 1.096667647361755 54.57608795166016 1.93046760559082 52.33905410766602 3.006950378417969 C 48.77578353881836 4.721579074859619 45.53798294067383 7.005964756011963 42.71561050415039 9.796664237976074 C 39.89455413818359 12.58605003356934 37.57424163818359 15.79646492004395 35.81914138793945 19.33869361877441 C 34.08203125 22.84457206726074 32.94490432739258 26.5861759185791 32.4365348815918 30.46652030944824 C 29.09833717346191 30.5433406829834 25.86165237426758 31.24455833435059 22.80902671813965 32.55296325683594 C 19.73012542724609 33.87263488769531 16.96642684936523 35.7517204284668 14.59469795227051 38.1380500793457 C 12.22218322753906 40.52518081665039 10.35988330841064 43.30121994018555 9.059512138366699 46.38906478881836 C 7.713026523590088 49.58639144897461 7.030312061309814 52.98129272460938 7.030312061309814 56.4794921875 C 7.030312061309814 59.99210739135742 7.718383312225342 63.39987945556641 9.075397491455078 66.60813903808594 C 10.38602638244629 69.70671844482422 12.26218318939209 72.4893798828125 14.65172672271729 74.87883758544922 C 17.04124069213867 77.268310546875 19.82392692565918 79.14437866210938 22.92248344421387 80.45493316650391 C 23.89026069641113 80.86427307128906 24.87644195556641 81.21277618408203 25.8784122467041 81.49990844726562 Z M 102.9182205200195 29.15534782409668 C 102.8691635131836 28.8656005859375 102.8164901733398 28.57625007629395 102.7604370117188 28.28847503662109 C 103.7804946899414 28.17129898071289 104.8163757324219 28.11200714111328 105.8472137451172 28.11200714111328 C 105.8900909423828 28.11200714111328 105.9329605102539 28.11211013793945 105.9758605957031 28.1123161315918 C 104.9375534057617 28.39962387084961 103.9165496826172 28.74780464172363 102.9182205200195 29.15534782409668 Z"/>
          <path class="cls-13" d="M 22.49686813354492 80.81652069091797 C 19.43120193481445 79.48595428466797 16.67399978637695 77.60816955566406 14.29816913604736 75.23239135742188 C 11.86286926269531 72.79718017578125 9.950740814208984 69.96109008789062 8.614897727966309 66.80290985107422 C 7.231668949127197 63.53269195556641 6.530312061309814 60.05939483642578 6.530312061309814 56.4794921875 C 6.530312061309814 52.91429138183594 7.226212024688721 49.45409393310547 8.598697662353516 46.19500732421875 C 9.924083709716797 43.04776382446289 11.82211208343506 40.21842193603516 14.24006938934326 37.78559494018555 C 16.6276912689209 35.38325119018555 19.40529632568359 33.4852409362793 22.49732780456543 32.14289093017578 C 20.21389389038086 32.42256546020508 17.99392700195312 33.02101898193359 15.86926937103271 33.93166351318359 C 12.96795463562012 35.17520904541016 10.36341190338135 36.94619369506836 8.127997398376465 39.19544982910156 C 5.891869068145752 41.44539260864258 4.136797904968262 44.0615348815918 2.911497831344604 46.97122192382812 C 1.643126249313354 49.98322296142578 1.000012040138245 53.18226623535156 1.000012040138245 56.4794921875 C 1.000012040138245 59.79024887084961 1.648212075233459 63.00140762329102 2.92661190032959 66.02379608154297 C 4.161569118499756 68.94351959228516 5.929754734039307 71.56592559814453 8.18205451965332 73.81816101074219 C 10.43428325653076 76.07035064697266 13.05671215057373 77.83847808837891 15.97648334503174 79.07343292236328 C 18.06927680969238 79.95859527587891 20.25272178649902 80.54163360595703 22.49686813354492 80.81652069091797 M 26.37495994567871 30.80555725097656 C 28.20544624328613 30.33027458190918 30.08510208129883 30.05399894714355 31.99853515625 29.97982215881348 C 32.53958892822266 26.19535827636719 33.67250442504883 22.5449047088623 35.37111282348633 19.11670684814453 C 37.15082550048828 15.52482223510742 39.50359725952148 12.2694787979126 42.36407089233398 9.441122055053711 C 45.22586822509766 6.611422061920166 48.50901031494141 4.295064926147461 52.12225341796875 2.556393384933472 C 52.95550918579102 2.155423641204834 53.80107116699219 1.787784934043884 54.65839004516602 1.453560352325439 C 52.33506774902344 1.83562707901001 50.0606575012207 2.458094596862793 47.85565567016602 3.31713604927063 C 44.04309844970703 4.802450180053711 40.55618286132812 6.94533634185791 37.49174118041992 9.686293601989746 C 31.34703826904297 15.18235492706299 27.40622901916504 22.67363929748535 26.37495994567871 30.80555725097656 M 60.77976989746094 81.99990844726562 L 56.60231018066406 81.99990844726562 C 57.34598159790039 81.99603271484375 58.10255432128906 81.96006774902344 58.85101318359375 81.89100646972656 C 59.48674011230469 81.95340728759766 60.13561248779297 81.98936462402344 60.77978515625 81.99789428710938 L 60.77976989746094 81.99990844726562 Z M 32.72612762451172 81.99990844726562 L 25.52041244506836 81.99990844726562 C 22.07528305053711 81.99990844726562 18.73318290710449 81.32516479492188 15.58694076538086 79.99443817138672 C 12.54798316955566 78.70907592773438 9.818726539611816 76.86901092529297 7.474955081939697 74.52527618408203 C 5.131155014038086 72.18153381347656 3.290997743606567 69.45229339599609 2.005612134933472 66.41335296630859 C 0.6747977137565613 63.26705169677734 1.20178219731315e-05 59.92481994628906 1.20178219731315e-05 56.4794921875 C 1.20178219731315e-05 53.04825210571289 0.6694977283477783 49.71863555908203 1.989883422851562 46.58312225341797 C 3.26519775390625 43.55464935302734 5.09171199798584 40.8319091796875 7.418712139129639 38.49052047729492 C 9.744969367980957 36.14987945556641 12.45561218261719 34.30682373046875 15.47531223297119 33.01253509521484 C 18.60005569458008 31.67325019836426 21.9218692779541 30.98266410827637 25.34851264953613 30.96000671386719 C 26.35419845581055 22.48083686828613 30.43032646179199 14.6606502532959 36.82506942749023 8.940936088562012 C 39.97904205322266 6.119907379150391 43.56814193725586 3.914278984069824 47.49264144897461 2.385350465774536 C 51.55539703369141 0.8025504350662231 55.84593963623047 7.551792805315927e-06 60.24511337280273 7.551792805315927e-06 C 61.50158309936523 7.551792805315927e-06 62.76836776733398 0.06706469506025314 64.01028442382812 0.1993504017591476 C 60.02093887329102 0.6242075562477112 56.1671257019043 1.719721794128418 52.55587005615234 3.457493305206299 C 49.04255676269531 5.148078918457031 45.85009765625 7.40050745010376 43.06716918945312 10.15220737457275 C 40.28552627563477 12.90262222290039 37.9976692199707 16.06807899475098 36.26715469360352 19.56067848205566 C 34.49072647094727 23.14593696594238 33.35071182250977 26.98122215270996 32.87881088256836 30.96000671386719 C 29.45273971557617 30.98266410827637 26.13138389587402 31.67293548583984 23.0059986114502 33.01253509521484 C 19.98629760742188 34.30682373046875 17.27565574645996 36.14987945556641 14.9493408203125 38.49052047729492 C 12.62225532531738 40.83193588256836 10.79566955566406 43.55467987060547 9.520312309265137 46.58312225341797 C 8.199854850769043 49.71866607666016 7.530312061309814 53.04826354980469 7.530312061309814 56.4794921875 C 7.530312061309814 59.92480850219727 8.205083847045898 63.26705169677734 9.535898208618164 66.41335296630859 C 10.82131195068359 69.45230865478516 12.66146945953369 72.18156433105469 15.00526905059814 74.52527618408203 C 17.34904098510742 76.86899566650391 20.07829856872559 78.70907592773438 23.11725425720215 79.99443817138672 C 26.16324043273926 81.28277587890625 29.39614105224609 81.95683288574219 32.72613906860352 81.99789428710938 L 32.72612762451172 81.99990844726562 Z M 102.5252838134766 29.86380767822266 L 102.5251007080078 29.86250686645508 C 102.4244155883789 29.19452095031738 102.3026580810547 28.52053642272949 102.1632537841797 27.85929298400879 C 103.3784255981445 27.6948070526123 104.6175994873047 27.61200714111328 105.8472137451172 27.61200714111328 C 107.1069946289062 27.61200714111328 108.3735961914062 27.69897842407227 109.6118087768555 27.87050819396973 C 107.1704254150391 28.20857810974121 104.7865676879883 28.87837982177734 102.526496887207 29.86327934265137 L 102.5252838134766 29.86380767822266 Z"/>
        </g>
      </g>
    </g>
  </g>
</svg>
