<svg xmlns="http://www.w3.org/2000/svg" xmlns:xlink="http://www.w3.org/1999/xlink" width="514" height="514" viewBox="0 0 514 514">
  <defs>
    <style>
      .cls-1, .cls-10, .cls-11, .cls-12, .cls-13, .cls-14, .cls-15, .cls-3, .cls-5, .cls-6, .cls-7, .cls-8, .cls-9 {
        stroke: #707070;
      }

      .cls-1 {
        fill: url(#linear-gradient);
      }

      .cls-2 {
        fill: url(#linear-gradient-2);
      }

      .cls-3 {
        fill: url(#linear-gradient-3);
      }

      .cls-4 {
        fill: url(#linear-gradient-4);
      }

      .cls-10, .cls-11, .cls-12, .cls-13, .cls-14, .cls-15, .cls-5, .cls-6, .cls-7, .cls-8, .cls-9 {
        fill: url(#linear-gradient-5);
      }

      .cls-6 {
        opacity: 0.631;
      }

      .cls-7 {
        opacity: 0.136;
      }

      .cls-8 {
        opacity: 0.173;
      }

      .cls-9 {
        opacity: 0.329;
      }

      .cls-10 {
        opacity: 0.103;
      }

      .cls-11 {
        opacity: 0.182;
      }

      .cls-12 {
        opacity: 0.108;
      }

      .cls-13 {
        opacity: 0.104;
      }

      .cls-14 {
        opacity: 0.286;
      }

      .cls-15 {
        opacity: 0.172;
      }

      .cls-16, .cls-18 {
        stroke: none;
      }

      .cls-17 {
        fill: none;
      }

      .cls-18 {
        fill: #707070;
      }

      .cls-19 {
        filter: url(#Subtraction_1);
      }

      .cls-20 {
        filter: url(#Subtraction_2);
      }

      .cls-21 {
        filter: url(#Rectangle_18);
      }
    </style>
    <linearGradient id="linear-gradient" x1="0.872" y1="0.093" x2="0.142" y2="0.932" gradientUnits="objectBoundingBox">
      <stop offset="0" stop-color="#342e80"/>
      <stop offset="1" stop-color="#5c6ebc"/>
    </linearGradient>
    <filter id="Rectangle_18" x="0" y="0" width="514" height="514" filterUnits="userSpaceOnUse">
      <feOffset dy="50" input="SourceAlpha"/>
      <feGaussianBlur stdDeviation="49.5" result="blur"/>
      <feFlood flood-opacity="0.161"/>
      <feComposite operator="in" in2="blur"/>
      <feComposite in="SourceGraphic"/>
    </filter>
    <linearGradient id="linear-gradient-2" x1="0.881" y1="0.863" x2="0.24" y2="0.176" gradientUnits="objectBoundingBox">
      <stop offset="0" stop-color="#a8a8a8"/>
      <stop offset="1" stop-color="#eaeaea"/>
    </linearGradient>
    <filter id="Subtraction_2" x="174.368" y="123.37" width="157.578" height="157.575" filterUnits="userSpaceOnUse">
      <feOffset input="SourceAlpha"/>
      <feGaussianBlur stdDeviation="10" result="blur-2"/>
      <feFlood flood-color="#fff"/>
      <feComposite operator="in" in2="blur-2"/>
      <feComposite in="SourceGraphic"/>
    </filter>
    <linearGradient id="linear-gradient-3" x1="0.184" y1="0.127" x2="0.839" y2="0.848" gradientUnits="objectBoundingBox">
      <stop offset="0" stop-color="#fff"/>
      <stop offset="1" stop-color="#d8d8d8"/>
    </linearGradient>
    <linearGradient id="linear-gradient-4" x1="0.184" y1="0.127" x2="0.839" y2="0.848" gradientUnits="objectBoundingBox">
      <stop offset="0" stop-color="#fff"/>
      <stop offset="1" stop-color="#f2f2f2"/>
    </linearGradient>
    <filter id="Subtraction_1" x="191.64" y="142.074" width="148.785" height="148.781" filterUnits="userSpaceOnUse">
      <feOffset input="SourceAlpha"/>
      <feGaussianBlur stdDeviation="10" result="blur-3"/>
      <feFlood flood-color="#fff"/>
      <feComposite operator="in" in2="blur-3"/>
      <feComposite in="SourceGraphic"/>
    </filter>
    <linearGradient id="linear-gradient-5" x1="0.5" x2="0.5" y2="1" gradientUnits="objectBoundingBox">
      <stop offset="0" stop-color="#fff" stop-opacity="0.2"/>
      <stop offset="1" stop-color="#fff"/>
    </linearGradient>
  </defs>
  <g id="night" transform="translate(-343.5 -85.5)">
    <g class="cls-21" transform="matrix(1, 0, 0, 1, 343.5, 85.5)">
      <g id="Rectangle_18-2" data-name="Rectangle 18" class="cls-1" transform="translate(148.5 98.5)">
        <rect class="cls-16" width="217" height="217" rx="72"/>
        <rect class="cls-17" x="0.5" y="0.5" width="216" height="216" rx="71.5"/>
      </g>
    </g>
    <g id="Group_24" data-name="Group 24" transform="translate(107 -198)">
      <g id="sun" transform="translate(440.868 436.871)">
        <g class="cls-20" transform="matrix(1, 0, 0, 1, -204.37, -153.37)">
          <g id="Subtraction_2-2" data-name="Subtraction 2" class="cls-2" transform="matrix(-0.99, -0.1, 0.1, -0.99, 292.67, 250.95)">
            <path class="cls-16" d="M 37.99683380126953 88.28128814697266 C 30.67826843261719 88.28128814697266 23.62277412414551 86.74472045898438 17.0263500213623 83.71428680419922 C 13.86259746551514 82.26082611083984 10.83716201782227 80.46773529052734 8.034091949462891 78.38481903076172 C 7.500086784362793 77.98800659179688 6.973754405975342 77.58039855957031 6.455284118652344 77.16219329833984 C 9.21173095703125 78.89434814453125 12.12906074523926 80.35919952392578 15.1842679977417 81.54267883300781 C 21.08676147460938 83.82912445068359 27.31813812255859 84.98844909667969 33.70529174804688 84.98844909667969 C 40.62876129150391 84.98844909667969 47.34545516967773 83.63233184814453 53.66878509521484 80.95775604248047 C 59.77613830566406 78.37453460693359 65.26100921630859 74.67653656005859 69.97104644775391 69.96648406982422 C 74.68110656738281 65.25640869140625 78.37911224365234 59.77152252197266 80.96234893798828 53.66419219970703 C 83.63694000244141 47.34085083007812 84.99306488037109 40.6241569519043 84.99306488037109 33.70069885253906 C 84.99306488037109 27.3155574798584 83.83393859863281 21.08528709411621 81.54788208007812 15.18293476104736 C 80.36511993408203 12.12911796569824 78.90167236328125 9.213541030883789 77.17093658447266 6.458168983459473 C 77.58802032470703 6.975510597229004 77.99488067626953 7.501081943511963 78.39067840576172 8.033886909484863 C 80.47300720214844 10.83698177337646 82.26557159423828 13.86221694946289 83.71857452392578 17.02555847167969 C 86.74837493896484 23.62161636352539 88.28460693359375 30.67584037780762 88.28460693359375 37.99226379394531 C 88.28460693359375 44.78152084350586 86.95512390136719 51.36738204956055 84.33307647705078 57.56690979003906 C 81.80031585693359 63.55532073974609 78.17437744140625 68.93350219726562 73.55597686767578 73.55204010009766 C 68.93753051757812 78.17066192626953 63.55950164794922 81.79673767089844 57.57131576538086 84.32953643798828 C 51.37184524536133 86.95172119140625 44.78603363037109 88.28128814697266 37.99683380126953 88.28128814697266 Z"/>
            <path class="cls-18" d="M 37.99683380126953 87.78128814697266 C 44.71875 87.78128814697266 51.23903274536133 86.46501922607422 57.37653732299805 83.86904144287109 C 63.30512619018555 81.36144256591797 68.62973022460938 77.77135467529297 73.20242309570312 73.19850158691406 C 77.77505493164062 68.62570953369141 81.36502075195312 63.30094528198242 83.87257385253906 57.37214660644531 C 86.46840667724609 51.23458099365234 87.78460693359375 44.71424102783203 87.78460693359375 37.99226379394531 C 87.78460693359375 30.74839401245117 86.26372528076172 23.7643928527832 83.26422119140625 17.2342643737793 C 82.73978424072266 16.09251594543457 82.1705322265625 14.96868801116943 81.55912017822266 13.86730480194092 C 81.71511077880859 14.24355316162109 81.86675262451172 14.62181949615479 82.01413726806641 15.00235748291016 C 84.32258605957031 20.96252250671387 85.49306488037109 27.2535572052002 85.49306488037109 33.70069885253906 C 85.49306488037109 40.69144058227539 84.12364196777344 47.47366333007812 81.42284393310547 53.85897064208984 C 78.81440734863281 60.02589797973633 75.08042144775391 65.56419372558594 70.32460021972656 70.32003784179688 C 65.56879425048828 75.07585144042969 60.03051376342773 78.80982971191406 53.86356353759766 81.41825103759766 C 47.47826766967773 84.11904144287109 40.696044921875 85.48844909667969 33.70529174804688 85.48844909667969 C 27.25612640380859 85.48844909667969 20.96398544311523 84.31777191162109 15.0036563873291 82.0089111328125 C 14.62096691131592 81.86067199707031 14.24007606506348 81.70791625976562 13.86172485351562 81.55096435546875 C 14.96514415740967 82.16384887695312 16.09108352661133 82.73438262939453 17.23508071899414 83.25994873046875 C 23.76556205749512 86.26008605957031 30.75083351135254 87.78128814697266 37.99683380126953 87.78128814697266 M 37.99683380126953 88.78128814697266 C 30.60566902160645 88.78128814697266 23.47996139526367 87.22935485839844 16.8176212310791 84.16864013671875 C 13.62232685089111 82.70068359375 10.56677436828613 80.88974761962891 7.735867977142334 78.78614807128906 C 4.92725658416748 76.69911193847656 2.324538707733154 74.31278991699219 -2.415556082269177e-06 71.69353485107422 C 4.547362327575684 75.73076629638672 9.71616268157959 78.88832092285156 15.3648681640625 81.07643127441406 C 21.20956230163574 83.34048461914062 27.38017463684082 84.48844909667969 33.70529174804688 84.48844909667969 C 40.56148147583008 84.48844909667969 47.212646484375 83.14561462402344 53.4740104675293 80.49725341796875 C 59.52176284790039 77.93923950195312 64.95323181152344 74.27720642089844 69.61749267578125 69.61293792724609 C 74.28179931640625 64.9486083984375 77.94382476806641 59.51714706420898 80.50184631347656 53.46941757202148 C 83.15022277832031 47.20805358886719 84.49306488037109 40.55690002441406 84.49306488037109 33.70069885253906 C 84.49306488037109 27.3775691986084 83.34529113769531 21.20804023742676 81.08163452148438 15.36352252960205 C 78.89510345458984 9.718051910400391 75.73941040039062 4.549016952514648 71.70218658447266 4.964671461493708e-06 C 74.32386779785156 2.327663898468018 76.70857238769531 4.931028366088867 78.79205322265625 7.735722541809082 C 80.89503479003906 10.56661701202393 82.70542907714844 13.62194633483887 84.17293548583984 16.81686401367188 C 87.23302459716797 23.47885131835938 88.78460693359375 30.60327529907227 88.78460693359375 37.99226379394531 C 88.78460693359375 44.84880447387695 87.44183349609375 51.50019454956055 84.79358673095703 57.76167678833008 C 82.23561859130859 63.80967712402344 78.57369232177734 69.24128723144531 73.90953826904297 73.90559387207031 C 69.24535369873047 78.5699462890625 63.81391525268555 82.23201751708984 57.76609039306641 84.7900390625 C 51.50470352172852 87.43841552734375 44.85335159301758 88.78128814697266 37.99683380126953 88.78128814697266 Z"/>
          </g>
        </g>
        <g id="Ellipse_39" data-name="Ellipse 39" class="cls-3" transform="translate(4.481 5.908)">
          <circle class="cls-16" cx="50.788" cy="50.788" r="50.788"/>
          <circle class="cls-17" cx="50.788" cy="50.788" r="50.288"/>
        </g>
        <g class="cls-19" transform="matrix(1, 0, 0, 1, -204.37, -153.37)">
          <g id="Subtraction_1-2" data-name="Subtraction 1" class="cls-4" transform="translate(221.64 172.07)">
            <path class="cls-16" d="M 37.99683380126953 88.28128814697266 C 30.67826843261719 88.28128814697266 23.62277412414551 86.74472045898438 17.0263500213623 83.71428680419922 C 13.86259746551514 82.26082611083984 10.83716201782227 80.46773529052734 8.034091949462891 78.38481903076172 C 7.500086784362793 77.98800659179688 6.973754405975342 77.58039855957031 6.455284118652344 77.16219329833984 C 9.21173095703125 78.89434814453125 12.12906074523926 80.35919952392578 15.1842679977417 81.54267883300781 C 21.08676147460938 83.82912445068359 27.31813812255859 84.98844909667969 33.70529174804688 84.98844909667969 C 40.62876129150391 84.98844909667969 47.34545516967773 83.63233184814453 53.66878509521484 80.95775604248047 C 59.77613830566406 78.37453460693359 65.26100921630859 74.67653656005859 69.97104644775391 69.96648406982422 C 74.68110656738281 65.25640869140625 78.37911224365234 59.77152252197266 80.96234893798828 53.66419219970703 C 83.63694000244141 47.34085083007812 84.99306488037109 40.6241569519043 84.99306488037109 33.70069885253906 C 84.99306488037109 27.3155574798584 83.83393859863281 21.08528709411621 81.54788208007812 15.18293476104736 C 80.36511993408203 12.12911796569824 78.90167236328125 9.213541030883789 77.17093658447266 6.458168983459473 C 77.58802032470703 6.975510597229004 77.99488067626953 7.501081943511963 78.39067840576172 8.033886909484863 C 80.47300720214844 10.83698177337646 82.26557159423828 13.86221694946289 83.71857452392578 17.02555847167969 C 86.74837493896484 23.62161636352539 88.28460693359375 30.67584037780762 88.28460693359375 37.99226379394531 C 88.28460693359375 44.78152084350586 86.95512390136719 51.36738204956055 84.33307647705078 57.56690979003906 C 81.80031585693359 63.55532073974609 78.17437744140625 68.93350219726562 73.55597686767578 73.55204010009766 C 68.93753051757812 78.17066192626953 63.55950164794922 81.79673767089844 57.57131576538086 84.32953643798828 C 51.37184524536133 86.95172119140625 44.78603363037109 88.28128814697266 37.99683380126953 88.28128814697266 Z"/>
            <path class="cls-18" d="M 37.99683380126953 87.78128814697266 C 44.71875 87.78128814697266 51.23903274536133 86.46501922607422 57.37653732299805 83.86904144287109 C 63.30512619018555 81.36144256591797 68.62973022460938 77.77135467529297 73.20242309570312 73.19850158691406 C 77.77505493164062 68.62570953369141 81.36502075195312 63.30094528198242 83.87257385253906 57.37214660644531 C 86.46840667724609 51.23458099365234 87.78460693359375 44.71424102783203 87.78460693359375 37.99226379394531 C 87.78460693359375 30.74839401245117 86.26372528076172 23.7643928527832 83.26422119140625 17.2342643737793 C 82.73978424072266 16.09251594543457 82.1705322265625 14.96868801116943 81.55912017822266 13.86730480194092 C 81.71511077880859 14.24355316162109 81.86675262451172 14.62181949615479 82.01413726806641 15.00235748291016 C 84.32258605957031 20.96252250671387 85.49306488037109 27.2535572052002 85.49306488037109 33.70069885253906 C 85.49306488037109 40.69144058227539 84.12364196777344 47.47366333007812 81.42284393310547 53.85897064208984 C 78.81440734863281 60.02589797973633 75.08042144775391 65.56419372558594 70.32460021972656 70.32003784179688 C 65.56879425048828 75.07585144042969 60.03051376342773 78.80982971191406 53.86356353759766 81.41825103759766 C 47.47826766967773 84.11904144287109 40.696044921875 85.48844909667969 33.70529174804688 85.48844909667969 C 27.25612640380859 85.48844909667969 20.96398544311523 84.31777191162109 15.0036563873291 82.0089111328125 C 14.62096691131592 81.86067199707031 14.24007606506348 81.70791625976562 13.86172485351562 81.55096435546875 C 14.96514415740967 82.16384887695312 16.09108352661133 82.73438262939453 17.23508071899414 83.25994873046875 C 23.76556205749512 86.26008605957031 30.75083351135254 87.78128814697266 37.99683380126953 87.78128814697266 M 37.99683380126953 88.78128814697266 C 30.60566902160645 88.78128814697266 23.47996139526367 87.22935485839844 16.8176212310791 84.16864013671875 C 13.62232685089111 82.70068359375 10.56677436828613 80.88974761962891 7.735867977142334 78.78614807128906 C 4.92725658416748 76.69911193847656 2.324538707733154 74.31278991699219 -2.415556082269177e-06 71.69353485107422 C 4.547362327575684 75.73076629638672 9.71616268157959 78.88832092285156 15.3648681640625 81.07643127441406 C 21.20956230163574 83.34048461914062 27.38017463684082 84.48844909667969 33.70529174804688 84.48844909667969 C 40.56148147583008 84.48844909667969 47.212646484375 83.14561462402344 53.4740104675293 80.49725341796875 C 59.52176284790039 77.93923950195312 64.95323181152344 74.27720642089844 69.61749267578125 69.61293792724609 C 74.28179931640625 64.9486083984375 77.94382476806641 59.51714706420898 80.50184631347656 53.46941757202148 C 83.15022277832031 47.20805358886719 84.49306488037109 40.55690002441406 84.49306488037109 33.70069885253906 C 84.49306488037109 27.3775691986084 83.34529113769531 21.20804023742676 81.08163452148438 15.36352252960205 C 78.89510345458984 9.718051910400391 75.73941040039062 4.549016952514648 71.70218658447266 4.964671461493708e-06 C 74.32386779785156 2.327663898468018 76.70857238769531 4.931028366088867 78.79205322265625 7.735722541809082 C 80.89503479003906 10.56661701202393 82.70542907714844 13.62194633483887 84.17293548583984 16.81686401367188 C 87.23302459716797 23.47885131835938 88.78460693359375 30.60327529907227 88.78460693359375 37.99226379394531 C 88.78460693359375 44.84880447387695 87.44183349609375 51.50019454956055 84.79358673095703 57.76167678833008 C 82.23561859130859 63.80967712402344 78.57369232177734 69.24128723144531 73.90953826904297 73.90559387207031 C 69.24535369873047 78.5699462890625 63.81391525268555 82.23201751708984 57.76609039306641 84.7900390625 C 51.50470352172852 87.43841552734375 44.85335159301758 88.78128814697266 37.99683380126953 88.78128814697266 Z"/>
          </g>
        </g>
      </g>
      <g id="Ellipse_44" data-name="Ellipse 44" class="cls-5" transform="translate(463.948 475.684)">
        <circle class="cls-16" cx="3.577" cy="3.577" r="3.577"/>
        <circle class="cls-17" cx="3.577" cy="3.577" r="3.077"/>
      </g>
      <g id="Ellipse_45" data-name="Ellipse 45" class="cls-5" transform="translate(496.853 461.377)">
        <circle class="cls-16" cx="7.153" cy="7.153" r="7.153"/>
        <circle class="cls-17" cx="7.153" cy="7.153" r="6.653"/>
      </g>
      <g id="Ellipse_46" data-name="Ellipse 46" class="cls-5" transform="translate(476.823 507.158)">
        <circle class="cls-16" cx="5.723" cy="5.723" r="5.723"/>
        <circle class="cls-17" cx="5.723" cy="5.723" r="5.223"/>
      </g>
      <g id="Ellipse_53" data-name="Ellipse 53" class="cls-6" transform="translate(503.948 497.61)">
        <ellipse class="cls-16" cx="2.499" cy="2.499" rx="2.499" ry="2.499"/>
        <ellipse class="cls-17" cx="2.499" cy="2.499" rx="1.999" ry="1.999"/>
      </g>
      <g id="Ellipse_54" data-name="Ellipse 54" class="cls-6" transform="translate(526.942 487.613)">
        <ellipse class="cls-16" cx="4.999" cy="4.999" rx="4.999" ry="4.999"/>
        <ellipse class="cls-17" cx="4.999" cy="4.999" rx="4.499" ry="4.499"/>
      </g>
      <g id="Ellipse_55" data-name="Ellipse 55" class="cls-6" transform="translate(512.945 519.605)">
        <ellipse class="cls-16" cx="3.999" cy="3.999" rx="3.999" ry="3.999"/>
        <ellipse class="cls-17" cx="3.999" cy="3.999" rx="3.499" ry="3.499"/>
      </g>
    </g>
    <g id="Ellipse_56" data-name="Ellipse 56" class="cls-7" transform="translate(670.948 220.61)">
      <ellipse class="cls-16" cx="1.999" cy="1.999" rx="1.999" ry="1.999"/>
      <ellipse class="cls-17" cx="1.999" cy="1.999" rx="1.499" ry="1.499"/>
    </g>
    <g id="Ellipse_57" data-name="Ellipse 57" class="cls-8" transform="translate(677.948 262.61)">
      <ellipse class="cls-16" cx="3" cy="3" rx="3" ry="3"/>
      <ellipse class="cls-17" cx="3" cy="3" rx="2.5" ry="2.5"/>
    </g>
    <g id="Ellipse_58" data-name="Ellipse 58" class="cls-9" transform="translate(624.948 211.61)">
      <ellipse class="cls-16" cx="1" cy="1" rx="1" ry="1"/>
      <ellipse class="cls-17" cx="1" cy="1" rx="0.5" ry="0.5"/>
    </g>
    <g id="Ellipse_59" data-name="Ellipse 59" class="cls-10" transform="translate(576.948 196.61)">
      <ellipse class="cls-16" cx="4.499" cy="4.499" rx="4.499" ry="4.499"/>
      <ellipse class="cls-17" cx="4.499" cy="4.499" rx="3.999" ry="3.999"/>
    </g>
    <g id="Ellipse_60" data-name="Ellipse 60" class="cls-10" transform="translate(538.948 216.61)">
      <ellipse class="cls-16" cx="4.499" cy="4.499" rx="4.499" ry="4.499"/>
      <ellipse class="cls-17" cx="4.499" cy="4.499" rx="3.999" ry="3.999"/>
    </g>
    <g id="Ellipse_61" data-name="Ellipse 61" class="cls-11" transform="translate(580.948 225.61)">
      <ellipse class="cls-16" cx="1.5" cy="1.5" rx="1.5" ry="1.5"/>
      <ellipse class="cls-17" cx="1.5" cy="1.5" rx="1" ry="1"/>
    </g>
    <g id="Ellipse_62" data-name="Ellipse 62" class="cls-12" transform="translate(641.948 233.61)">
      <ellipse class="cls-16" cx="5.5" cy="5.5" rx="5.5" ry="5.5"/>
      <ellipse class="cls-17" cx="5.5" cy="5.5" rx="5" ry="5"/>
    </g>
    <g id="Ellipse_63" data-name="Ellipse 63" class="cls-13" transform="translate(648.948 192.61)">
      <ellipse class="cls-16" cx="4.499" cy="4.499" rx="4.499" ry="4.499"/>
      <ellipse class="cls-17" cx="4.499" cy="4.499" rx="3.999" ry="3.999"/>
    </g>
    <g id="Ellipse_64" data-name="Ellipse 64" class="cls-14" transform="translate(677.948 299.61)">
      <ellipse class="cls-16" cx="1.5" cy="1.5" rx="1.5" ry="1.5"/>
      <ellipse class="cls-17" cx="1.5" cy="1.5" rx="1" ry="1"/>
    </g>
    <g id="Ellipse_65" data-name="Ellipse 65" class="cls-15" transform="translate(687.948 333.61)">
      <ellipse class="cls-16" cx="4.499" cy="4.499" rx="4.499" ry="4.499"/>
      <ellipse class="cls-17" cx="4.499" cy="4.499" rx="3.999" ry="3.999"/>
    </g>
  </g>
</svg>
