<svg xmlns="http://www.w3.org/2000/svg" xmlns:xlink="http://www.w3.org/1999/xlink" width="514" height="514" viewBox="0 0 514 514">
  <defs>
    <linearGradient id="linear-gradient" x1="0.872" y1="0.093" x2="0.142" y2="0.932" gradientUnits="objectBoundingBox">
      <stop offset="0" stop-color="#7d5dff"/>
      <stop offset="1" stop-color="#29deff"/>
    </linearGradient>
    <filter id="Rectangle_18" x="0" y="0" width="514" height="514" filterUnits="userSpaceOnUse">
      <feOffset dy="50" input="SourceAlpha"/>
      <feGaussianBlur stdDeviation="49.5" result="blur"/>
      <feFlood flood-opacity="0.161"/>
      <feComposite operator="in" in2="blur"/>
      <feComposite in="SourceGraphic"/>
    </filter>
    <linearGradient id="linear-gradient-2" x1="0.881" y1="0.863" x2="0.24" y2="0.176" gradientUnits="objectBoundingBox">
      <stop offset="0" stop-color="#facd0b"/>
      <stop offset="1" stop-color="#ffb7a0"/>
    </linearGradient>
    <filter id="Subtraction_2" x="188.368" y="147.37" width="128.205" height="128.203" filterUnits="userSpaceOnUse">
      <feOffset dy="10" input="SourceAlpha"/>
      <feGaussianBlur stdDeviation="10" result="blur-2"/>
      <feFlood flood-color="#ffddbc"/>
      <feComposite operator="in" in2="blur-2"/>
      <feComposite in="SourceGraphic"/>
    </filter>
    <linearGradient id="linear-gradient-3" x1="0.184" y1="0.127" x2="0.839" y2="0.848" gradientUnits="objectBoundingBox">
      <stop offset="0" stop-color="#ffdb45"/>
      <stop offset="1" stop-color="#ffa68b"/>
    </linearGradient>
    <linearGradient id="linear-gradient-4" x1="0.184" y1="0.127" x2="0.839" y2="0.848" gradientUnits="objectBoundingBox">
      <stop offset="0" stop-color="#ffe05d"/>
      <stop offset="1" stop-color="#ffbeaa"/>
    </linearGradient>
    <filter id="Subtraction_1" x="200.441" y="160.444" width="122.059" height="122.056" filterUnits="userSpaceOnUse">
      <feOffset dy="10" input="SourceAlpha"/>
      <feGaussianBlur stdDeviation="10" result="blur-3"/>
      <feFlood flood-color="#ffddbc"/>
      <feComposite operator="in" in2="blur-3"/>
      <feComposite in="SourceGraphic"/>
    </filter>
    <linearGradient id="linear-gradient-5" x1="0.5" x2="0.5" y2="1" gradientUnits="objectBoundingBox">
      <stop offset="0" stop-color="#fff" stop-opacity="0.2"/>
      <stop offset="1" stop-color="#fff"/>
    </linearGradient>
  </defs>
  <g id="sunny" transform="translate(-343.5 -85.5)">
    <g transform="matrix(1, 0, 0, 1, 343.5, 85.5)" filter="url(#Rectangle_18)">
      <rect id="Rectangle_18-2" data-name="Rectangle 18" width="217" height="217" rx="72" transform="translate(148.5 98.5)" fill="url(#linear-gradient)"/>
    </g>
    <g id="Group_24" data-name="Group 24" transform="translate(121 -184)">
      <g id="sun" transform="translate(19 215)">
        <g transform="matrix(1, 0, 0, 1, 203.5, 54.5)" filter="url(#Subtraction_2)">
          <path id="Subtraction_2-2" data-name="Subtraction 2" d="M22.5-138a35.212,35.212,0,0,1-14.8-3.224,35.542,35.542,0,0,1-6.348-3.762,35.767,35.767,0,0,1-5.407-4.958,35.372,35.372,0,0,0,10.74,6.558A35.348,35.348,0,0,0,19.5-141a35.277,35.277,0,0,0,13.818-2.79A35.382,35.382,0,0,0,44.6-151.4a35.382,35.382,0,0,0,7.608-11.284A35.277,35.277,0,0,0,55-176.5a35.346,35.346,0,0,0-2.385-12.817,35.38,35.38,0,0,0-6.556-10.739,35.771,35.771,0,0,1,4.956,5.407,35.549,35.549,0,0,1,3.761,6.348A35.21,35.21,0,0,1,58-173.5a35.28,35.28,0,0,1-2.79,13.818A35.381,35.381,0,0,1,47.6-148.4a35.38,35.38,0,0,1-11.284,7.608A35.278,35.278,0,0,1,22.5-138Z" transform="matrix(-0.99, -0.1, 0.1, -0.99, 296.96, 36.19)" fill="url(#linear-gradient-2)"/>
        </g>
        <circle id="Ellipse_39" data-name="Ellipse 39" cx="35.5" cy="35.5" r="35.5" transform="translate(425 226)" fill="url(#linear-gradient-3)"/>
        <g transform="matrix(1, 0, 0, 1, 203.5, 54.5)" filter="url(#Subtraction_1)">
          <path id="Subtraction_1-2" data-name="Subtraction 1" d="M22.5-138a35.212,35.212,0,0,1-14.8-3.224,35.542,35.542,0,0,1-6.348-3.762,35.767,35.767,0,0,1-5.407-4.958,35.372,35.372,0,0,0,10.74,6.558A35.348,35.348,0,0,0,19.5-141a35.277,35.277,0,0,0,13.818-2.79A35.382,35.382,0,0,0,44.6-151.4a35.382,35.382,0,0,0,7.608-11.284A35.277,35.277,0,0,0,55-176.5a35.346,35.346,0,0,0-2.385-12.817,35.38,35.38,0,0,0-6.556-10.739,35.771,35.771,0,0,1,4.956,5.407,35.549,35.549,0,0,1,3.761,6.348A35.21,35.21,0,0,1,58-173.5a35.28,35.28,0,0,1-2.79,13.818A35.381,35.381,0,0,1,47.6-148.4a35.38,35.38,0,0,1-11.284,7.608A35.278,35.278,0,0,1,22.5-138Z" transform="translate(234.5 380.5)" fill="url(#linear-gradient-4)"/>
        </g>
        <rect id="Rectangle_3" data-name="Rectangle 3" width="16" height="10" rx="5" transform="translate(389 257)" fill="#ffdc4b"/>
        <rect id="Rectangle_4" data-name="Rectangle 4" width="16" height="10" rx="5" transform="translate(466 190) rotate(90)" fill="#ffdc4b"/>
        <rect id="Rectangle_5" data-name="Rectangle 5" width="16" height="10" rx="5" transform="translate(516 257)" fill="#ffdc4b"/>
        <rect id="Rectangle_6" data-name="Rectangle 6" width="16" height="10" rx="5" transform="translate(412.636 208.565) rotate(45)" fill="#ffdc4b"/>
        <rect id="Rectangle_7" data-name="Rectangle 7" width="16" height="10" rx="5" transform="translate(466 317) rotate(90)" fill="#ffdc4b"/>
        <rect id="Rectangle_8" data-name="Rectangle 8" width="16" height="10" rx="5" transform="translate(515.435 215.636) rotate(135)" fill="#ffdc4b"/>
        <rect id="Rectangle_9" data-name="Rectangle 9" width="15" height="10" rx="5" transform="translate(503 297.929) rotate(45)" fill="#ffdc4b"/>
        <rect id="Rectangle_10" data-name="Rectangle 10" width="16" height="10" rx="5" transform="translate(425.778 304.293) rotate(135)" fill="#ffdc4b"/>
      </g>
      <circle id="Ellipse_44" data-name="Ellipse 44" cx="2.5" cy="2.5" r="2.5" transform="translate(457 464)" opacity="0.478" fill="url(#linear-gradient-5)"/>
      <circle id="Ellipse_45" data-name="Ellipse 45" cx="5" cy="5" r="5" transform="translate(480 454)" opacity="0.31" fill="url(#linear-gradient-5)"/>
      <circle id="Ellipse_46" data-name="Ellipse 46" cx="4" cy="4" r="4" transform="translate(466 486)" opacity="0.261" fill="url(#linear-gradient-5)"/>
    </g>
  </g>
</svg>
