<svg xmlns="http://www.w3.org/2000/svg" xmlns:xlink="http://www.w3.org/1999/xlink" width="514" height="514" viewBox="0 0 514 514">
  <defs>
    <style>
      .cls-1 {
        fill: url(#linear-gradient);
      }

      .cls-2 {
        fill: url(#linear-gradient-2);
      }

      .cls-3 {
        stroke: #fff;
        fill: url(#linear-gradient-4);
      }

      .cls-4 {
        fill: url(#linear-gradient-5);
      }

      .cls-5 {
        fill: #fff;
      }

      .cls-6, .cls-7 {
        stroke: none;
      }

      .cls-7 {
        fill: #707070;
      }

      .cls-8 {
        filter: url(#clouds-2);
      }

      .cls-9 {
        filter: url(#Path_1056);
      }

      .cls-10 {
        filter: url(#clouds);
      }

      .cls-11 {
        filter: url(#Path_1060);
      }
    </style>
    <linearGradient id="linear-gradient" x1="0.872" y1="0.093" x2="0.142" y2="0.932" gradientUnits="objectBoundingBox">
      <stop offset="0" stop-color="#7d5dff"/>
      <stop offset="1" stop-color="#29deff"/>
    </linearGradient>
    <filter id="Path_1060" x="0" y="0" width="514" height="514" filterUnits="userSpaceOnUse">
      <feOffset dy="50" input="SourceAlpha"/>
      <feGaussianBlur stdDeviation="49.5" result="blur"/>
      <feFlood flood-opacity="0.161"/>
      <feComposite operator="in" in2="blur"/>
      <feComposite in="SourceGraphic"/>
    </filter>
    <linearGradient id="linear-gradient-2" x1="0.5" x2="0.5" y2="1" gradientUnits="objectBoundingBox">
      <stop offset="0" stop-color="#fff"/>
      <stop offset="1" stop-color="#c3c3c3"/>
    </linearGradient>
    <filter id="clouds" x="175.5" y="76.5" width="214.102" height="178" filterUnits="userSpaceOnUse">
      <feOffset input="SourceAlpha"/>
      <feGaussianBlur stdDeviation="20" result="blur-2"/>
      <feFlood flood-color="#fff" flood-opacity="0.2"/>
      <feComposite operator="in" in2="blur-2"/>
      <feComposite in="SourceGraphic"/>
    </filter>
    <linearGradient id="linear-gradient-4" x1="0.5" x2="0.5" y2="1" gradientUnits="objectBoundingBox">
      <stop offset="0" stop-color="#fff43e"/>
      <stop offset="1" stop-color="#ffbc61"/>
    </linearGradient>
    <filter id="Path_1056" x="196.642" y="184.134" width="106.98" height="143.563" filterUnits="userSpaceOnUse">
      <feOffset dy="10" input="SourceAlpha"/>
      <feGaussianBlur stdDeviation="10" result="blur-3"/>
      <feFlood flood-color="#ffa133" flood-opacity="0.384"/>
      <feComposite operator="in" in2="blur-3"/>
      <feComposite in="SourceGraphic"/>
    </filter>
    <linearGradient id="linear-gradient-5" x1="0.5" x2="0.5" y2="1" gradientUnits="objectBoundingBox">
      <stop offset="0" stop-color="#fff"/>
      <stop offset="1" stop-color="#f2f2f2"/>
    </linearGradient>
    <filter id="clouds-2" x="123.5" y="88.5" width="253.041" height="202" filterUnits="userSpaceOnUse">
      <feOffset input="SourceAlpha"/>
      <feGaussianBlur stdDeviation="20" result="blur-4"/>
      <feFlood flood-color="#fff" flood-opacity="0.2"/>
      <feComposite operator="in" in2="blur-4"/>
      <feComposite in="SourceGraphic"/>
    </filter>
  </defs>
  <g id="thunder_strom" data-name="thunder strom" transform="translate(-695.5 -90.5)">
    <g class="cls-11" transform="matrix(1, 0, 0, 1, 695.5, 90.5)">
      <g id="Path_1060-2" data-name="Path 1060" class="cls-1" transform="translate(148.5 98.5)">
        <path class="cls-6" d="M 145 216.5 L 72 216.5 C 62.34733200073242 216.5 52.98369598388672 214.6096038818359 44.16913986206055 210.8813934326172 C 39.93255615234375 209.0894775390625 35.84635925292969 206.8715515136719 32.02402877807617 204.2892150878906 C 28.23786163330078 201.7313385009766 24.67749977111816 198.7937774658203 21.44186019897461 195.5581359863281 C 18.20622253417969 192.3224945068359 15.26866626739502 188.7621459960938 12.71077823638916 184.9759674072266 C 10.12844467163086 181.1536407470703 7.91052770614624 177.0674438476562 6.118611335754395 172.8308563232422 C 2.390388965606689 164.0163116455078 0.5 154.6526641845703 0.5 145 L 0.5 72 C 0.5 62.34733200073242 2.390388965606689 52.98369598388672 6.118611335754395 44.16913986206055 C 7.91052770614624 39.93255615234375 10.12844467163086 35.84635925292969 12.71077823638916 32.02402877807617 C 15.26866626739502 28.23786163330078 18.20622253417969 24.67749977111816 21.44186019897461 21.44186019897461 C 24.67749977111816 18.20622253417969 28.23786163330078 15.26866626739502 32.02402877807617 12.71077823638916 C 35.84635925292969 10.12844467163086 39.93255615234375 7.91052770614624 44.16913986206055 6.118611335754395 C 52.98369598388672 2.390388965606689 62.34733200073242 0.5 72 0.5 L 109.7672805786133 0.5 L 145 0.5 C 154.6526641845703 0.5 164.0163116455078 2.390388965606689 172.8308563232422 6.118611335754395 C 177.0674438476562 7.91052770614624 181.1536407470703 10.12844467163086 184.9759674072266 12.71077823638916 C 188.7621459960938 15.26866626739502 192.3224945068359 18.20622253417969 195.5581359863281 21.44186019897461 C 198.7937774658203 24.67749977111816 201.7313385009766 28.23786163330078 204.2892150878906 32.02402877807617 C 206.8715515136719 35.84635925292969 209.0894775390625 39.93255615234375 210.8813934326172 44.16913986206055 C 214.6096038818359 52.98369598388672 216.5 62.34733200073242 216.5 72 L 216.5 145 C 216.5 154.6526641845703 214.6096038818359 164.0163116455078 210.8813934326172 172.8308563232422 C 209.0894775390625 177.0674438476562 206.8715515136719 181.1536407470703 204.2892150878906 184.9759674072266 C 201.7313385009766 188.7621459960938 198.7937774658203 192.3224945068359 195.5581359863281 195.5581359863281 C 192.3224945068359 198.7937774658203 188.7621459960938 201.7313385009766 184.9759674072266 204.2892150878906 C 181.1536407470703 206.8715515136719 177.0674438476562 209.0894775390625 172.8308563232422 210.8813934326172 C 164.0163116455078 214.6096038818359 154.6526641845703 216.5 145 216.5 Z"/>
        <path class="cls-7" d="M 72 1 C 62.41461181640625 1 53.11650085449219 2.877090454101562 44.36392211914062 6.579116821289062 C 40.15708923339844 8.358474731445312 36.09953308105469 10.56083679199219 32.30390930175781 13.12507629394531 C 28.54414367675781 15.6651611328125 25.00856018066406 18.582275390625 21.79541015625 21.79541015625 C 18.582275390625 25.00856018066406 15.6651611328125 28.54414367675781 13.12507629394531 32.30390930175781 C 10.56083679199219 36.09953308105469 8.358474731445312 40.15708923339844 6.579116821289062 44.36392211914062 C 2.877090454101562 53.11650085449219 1 62.41461181640625 1 72 L 1 145 C 1 154.5853881835938 2.877090454101562 163.8834991455078 6.579116821289062 172.6360778808594 C 8.358474731445312 176.8429260253906 10.56083679199219 180.9004669189453 13.12507629394531 184.6960754394531 C 15.6651611328125 188.4558563232422 18.582275390625 191.9914398193359 21.79541015625 195.20458984375 C 25.00856018066406 198.417724609375 28.54414367675781 201.3348388671875 32.30390930175781 203.8749237060547 C 36.09953308105469 206.4391632080078 40.15708923339844 208.6415252685547 44.36392211914062 210.4208831787109 C 53.11650085449219 214.1229095458984 62.41461181640625 216 72 216 L 145 216 C 154.5853881835938 216 163.8834991455078 214.1229095458984 172.6360778808594 210.4208831787109 C 176.8429260253906 208.6415252685547 180.9004669189453 206.4391632080078 184.6960754394531 203.8749237060547 C 188.4558563232422 201.3348388671875 191.9914398193359 198.417724609375 195.20458984375 195.20458984375 C 198.417724609375 191.9914398193359 201.3348388671875 188.4558563232422 203.8749237060547 184.6960754394531 C 206.4391632080078 180.9004669189453 208.6415252685547 176.8429260253906 210.4208831787109 172.6360778808594 C 214.1229095458984 163.8834991455078 216 154.5853881835938 216 145 L 216 72 C 216 62.41461181640625 214.1229095458984 53.11650085449219 210.4208831787109 44.36392211914062 C 208.6415252685547 40.15708923339844 206.4391632080078 36.09953308105469 203.8749237060547 32.30390930175781 C 201.3348388671875 28.54414367675781 198.417724609375 25.00856018066406 195.20458984375 21.79541015625 C 191.9914398193359 18.582275390625 188.4558563232422 15.6651611328125 184.6960754394531 13.12507629394531 C 180.9004669189453 10.56083679199219 176.8429260253906 8.358474731445312 172.6360778808594 6.579116821289062 C 163.8834991455078 2.877090454101562 154.5853881835938 1 145 1 L 109.7672805786133 1 L 72 1 M 72 0 L 109.7672805786133 0 L 145 0 C 184.7644958496094 0 217 32.23550415039062 217 72 L 217 145 C 217 184.7644958496094 184.7644958496094 217 145 217 L 72 217 C 32.23550415039062 217 0 184.7644958496094 0 145 L 0 72 C 0 32.23550415039062 32.23550415039062 0 72 0 Z"/>
      </g>
    </g>
    <g id="Group_36" data-name="Group 36" transform="translate(357 -10)">
      <g id="Group_32" data-name="Group 32" transform="translate(408 -24)">
        <g class="cls-10" transform="matrix(1, 0, 0, 1, -69.5, 124.5)">
          <g id="clouds-3" data-name="clouds" class="cls-2" transform="translate(235.5 136.5)">
            <path class="cls-6" d="M 76.34700012207031 57.49960327148438 L 37.87740325927734 57.49960327148438 C 37.3681526184082 57.49960327148438 36.85382843017578 57.47451400756836 36.34871292114258 57.4250373840332 L 36.30142593383789 57.42040252685547 L 36.25412750244141 57.42475128173828 C 35.71474075317383 57.47442626953125 35.16595077514648 57.49960327148438 34.62300109863281 57.49960327148438 L 18.05130195617676 57.49960327148438 C 13.36318874359131 57.49960327148438 8.955689430236816 55.67407608032227 5.640701770782471 52.35932540893555 C 2.325676679611206 49.04451370239258 0.5000016689300537 44.63718795776367 0.5000016689300537 39.94920349121094 C 0.5000016689300537 35.28185272216797 2.311926603317261 30.88821411132812 5.601989269256592 27.57765197753906 C 8.890539169311523 24.26861381530762 13.26970195770264 22.42921447753906 17.93277740478516 22.39830207824707 L 18.37401390075684 22.39537620544434 L 18.42598915100098 21.95720100402832 C 19.12298965454102 16.08082580566406 21.94780158996582 10.66122627258301 26.38007736206055 6.696739196777344 C 30.84761428833008 2.700714111328125 36.61232757568359 0.5000016093254089 42.61230087280273 0.5000016093254089 C 45.59797668457031 0.5000016093254089 48.51358795166016 1.033714175224304 51.27814102172852 2.086326599121094 C 53.94901275634766 3.103251695632935 56.40272521972656 4.573214054107666 58.57114028930664 6.455376625061035 C 62.95185089111328 10.25778961181641 65.83748626708984 15.49360179901123 66.69648742675781 21.19831466674805 L 66.79347991943359 21.84245109558105 L 67.39064788818359 21.58223915100098 C 69.75295257568359 20.5528507232666 72.26850128173828 20.0309009552002 74.86740112304688 20.0309009552002 C 77.396728515625 20.0309009552002 79.85015106201172 20.52615165710449 82.15951538085938 21.50290107727051 C 84.39038848876953 22.44645118713379 86.39402770996094 23.79732704162598 88.11476135253906 25.51801490783691 C 89.83554077148438 27.23872756958008 91.18649291992188 29.24234008789062 92.13007354736328 31.47321319580078 C 93.10691070556641 33.78264999389648 93.60220336914062 36.23619079589844 93.60220336914062 38.76570129394531 C 93.60220336914062 43.5743522644043 91.78285217285156 48.14572525024414 88.47930145263672 51.63773727416992 L 88.46485137939453 51.65301513671875 L 88.45172882080078 51.66943740844727 C 85.49439239501953 55.37458801269531 81.08238983154297 57.49960327148438 76.34700012207031 57.49960327148438 Z"/>
            <path class="cls-7" d="M 76.34700012207031 56.99960327148438 C 80.92945098876953 56.99960327148438 85.19901275634766 54.94313812255859 88.06095123291016 51.35752487182617 L 88.08717346191406 51.32466506958008 L 88.11607360839844 51.29411315917969 C 91.33142852783203 47.89533996582031 93.10220336914062 43.44600296020508 93.10220336914062 38.76570129394531 C 93.10220336914062 33.89486312866211 91.20539855957031 29.31563949584961 87.76121520996094 25.8715648651123 C 84.31712341308594 22.42758941650391 79.73801422119141 20.5309009552002 74.86740112304688 20.5309009552002 C 72.33763885498047 20.5309009552002 69.88930511474609 21.03883934020996 67.59038543701172 22.04060173034668 L 66.39604949951172 22.5610523223877 L 66.20206451416016 21.27276420593262 C 65.36076354980469 15.68560123443604 62.5343132019043 10.55745124816895 58.24338912963867 6.832976818084717 C 56.11941528320312 4.989376544952393 53.71610260009766 3.549589157104492 51.10022735595703 2.553601741790771 C 48.3927001953125 1.522701621055603 45.53695297241211 1.000001668930054 42.61230087280273 1.000001668930054 C 36.73548889160156 1.000001668930054 31.08915138244629 3.155489206314087 26.71342658996582 7.069401741027832 C 22.37201499938965 10.95261383056641 19.60515213012695 16.26078987121582 18.9225025177002 22.0161018371582 L 18.81856346130371 22.8924388885498 L 17.93608856201172 22.89828872680664 C 13.40590190887451 22.9283275604248 9.151514053344727 24.7153263092041 5.956639289855957 27.93011474609375 C 2.76030158996582 31.14636421203613 1.000001668930054 35.41482543945312 1.000001668930054 39.94920349121094 C 1.000001668930054 44.50362777709961 2.773664236068726 48.7853889465332 5.994251728057861 52.00576400756836 C 9.214801788330078 55.22608947753906 13.49673938751221 56.99960327148438 18.05130195617676 56.99960327148438 L 34.62300109863281 56.99960327148438 C 35.15071487426758 56.99960327148438 35.68407821655273 56.97512817382812 36.20827484130859 56.92686462402344 L 36.30289077758789 56.91815185546875 L 36.39745330810547 56.92741394042969 C 36.88644027709961 56.97531509399414 37.38436508178711 56.99960327148438 37.87740325927734 56.99960327148438 L 76.34700012207031 56.99960327148438 M 76.34700012207031 57.99960327148438 L 37.87740325927734 57.99960327148438 C 37.3452033996582 57.99960327148438 36.81881332397461 57.97347640991211 36.29996490478516 57.92265319824219 C 35.74796295166016 57.97347640991211 35.18827819824219 57.99960327148438 34.62300109863281 57.99960327148438 L 18.05130195617676 57.99960327148438 C 8.082001686096191 57.99960327148438 1.684570293036813e-06 49.91850280761719 1.684570293036813e-06 39.94920349121094 C 1.684570293036813e-06 30.02066421508789 8.016414642333984 21.96403884887695 17.92946434020996 21.89831352233887 C 19.39236450195312 9.564726829528809 29.8850269317627 1.635742137295892e-06 42.61230087280273 1.635742137295892e-06 C 55.0722770690918 1.635742137295892e-06 65.39035034179688 9.16611385345459 67.19091796875 21.12386322021484 C 69.54254150390625 20.0991268157959 72.13846588134766 19.5309009552002 74.86740112304688 19.5309009552002 C 85.49010467529297 19.5309009552002 94.10220336914062 28.1421012878418 94.10220336914062 38.76570129394531 C 94.10220336914062 43.88383865356445 92.10260009765625 48.5352897644043 88.84251403808594 51.98134994506836 C 85.91458892822266 55.64965057373047 81.40554809570312 57.99960327148438 76.34700012207031 57.99960327148438 Z"/>
          </g>
        </g>
        <g id="Subtraction_3" data-name="Subtraction 3" class="cls-2" transform="translate(166 261)">
          <path class="cls-6" d="M 17.30812072753906 57.48430633544922 C 15.20097637176514 57.39733505249023 13.15638828277588 56.93970489501953 11.21975803375244 56.12065124511719 C 9.129828453063965 55.23675155639648 7.252758026123047 53.97126007080078 5.640697956085205 52.35932159423828 C 4.028648376464844 50.74737167358398 2.763058185577393 48.87041091918945 1.879088163375854 46.78058242797852 C 0.9639981389045715 44.61719131469727 0.5000081658363342 42.31878280639648 0.5000081658363342 39.94920349121094 C 0.5000081658363342 35.28170013427734 2.311928272247314 30.88796234130859 5.601998329162598 27.57734107971191 C 8.740057945251465 24.41970062255859 12.87155246734619 22.60026168823242 17.29491424560547 22.4134578704834 C 14.65753078460693 23.32598876953125 12.24284076690674 24.83584785461426 10.21889781951904 26.8724308013916 C 6.741358280181885 30.37168121337891 4.826198101043701 35.01576995849609 4.826198101043701 39.94920349121094 C 4.826198101043701 42.45332336425781 5.316768169403076 44.8828010559082 6.284287929534912 47.17015075683594 C 7.218708038330078 49.37921142578125 8.556267738342285 51.36300277709961 10.25983810424805 53.06645202636719 C 11.96339797973633 54.76990127563477 13.94729804992676 56.10735321044922 16.15643882751465 57.04167175292969 C 16.53645515441895 57.202392578125 16.92042541503906 57.34994888305664 17.30812072753906 57.48430633544922 Z M 18.41337394714355 22.06601905822754 L 18.42632865905762 21.9567813873291 C 19.12312889099121 16.08050155639648 21.9478874206543 10.66097164154053 26.3802375793457 6.696531772613525 C 30.33975410461426 3.155008316040039 35.31798553466797 1.023693799972534 40.57606887817383 0.5847832560539246 C 39.33849716186523 0.9596961736679077 38.12948989868164 1.430439829826355 36.95638656616211 1.994921684265137 C 34.42140960693359 3.214731693267822 32.11804962158203 4.839821815490723 30.11028861999512 6.825051784515381 C 28.10347747802734 8.809361457824707 26.45287895202637 11.09321117401123 25.20433807373047 13.61317157745361 C 23.98705291748047 16.0700569152832 23.18397521972656 18.68941116333008 22.81461524963379 21.40586280822754 C 21.30855941772461 21.45056915283203 19.83358955383301 21.67402267456055 18.41337394714355 22.06601905822754 Z M 72.9088134765625 20.41933059692383 C 72.8922119140625 20.32537460327148 72.87506103515625 20.23136329650879 72.85739135742188 20.13750839233398 C 73.20368194580078 20.10066032409668 73.55222320556641 20.07329750061035 73.90142822265625 20.05552101135254 C 73.56747436523438 20.16778945922852 73.23644256591797 20.28910255432129 72.9088134765625 20.41933059692383 Z"/>
          <path class="cls-7" d="M 13.9369010925293 56.50119400024414 C 12.46775436401367 55.66285705566406 11.11793899536133 54.63156509399414 9.906303405761719 53.42001342773438 C 8.156970024108887 51.67081451416016 6.783425807952881 49.63359069824219 5.823792457580566 47.36493682861328 C 4.830070495605469 45.015625 4.3262038230896 42.52061462402344 4.3262038230896 39.94920349121094 C 4.3262038230896 34.8828010559082 6.292981624603271 30.11354637145996 9.864248275756836 26.51997947692871 C 11.09108066558838 25.28548622131348 12.45755958557129 24.23955154418945 13.92855739593506 23.39686393737793 C 10.93287467956543 24.1376838684082 8.18651008605957 25.6860237121582 5.956648349761963 27.92979049682617 C 2.760303735733032 31.1461009979248 1.000003695487976 35.41468048095703 1.000003695487976 39.94920349121094 C 1.000003695487976 42.25149154663086 1.450703740119934 44.48435592651367 2.339592695236206 46.58580017089844 C 3.198348045349121 48.61602401733398 4.427959442138672 50.43956756591797 5.994236946105957 52.00575637817383 C 7.560559272766113 53.57194519042969 9.384203910827637 54.80146789550781 11.41452598571777 55.66015625 C 12.23645496368408 56.00777435302734 13.07847499847412 56.28836822509766 13.9369010925293 56.50119400024414 M 19.00413131713867 21.39941215515137 C 20.10363388061523 21.14225769042969 21.23173332214355 20.98206901550293 22.37908744812012 20.92313003540039 C 22.7789478302002 18.30108833312988 23.57703971862793 15.77137184143066 24.75631523132324 13.39120197296143 C 26.02944755554199 10.82157897949219 27.71250343322754 8.492790222167969 29.75873756408691 6.469501495361328 C 31.58927154541016 4.659512996673584 33.66093826293945 3.143047332763672 35.92694854736328 1.953082799911499 C 32.53951644897461 2.940646409988403 29.38883781433105 4.676364421844482 26.71358108520508 7.069212913513184 C 22.52738380432129 10.81348133087158 19.80530548095703 15.8820915222168 19.00413131713867 21.39941215515137 M 42.95018005371094 57.99960327148438 L 40.06906890869141 57.99960327148438 C 40.58338165283203 57.99578094482422 41.10748291015625 57.97042465209961 41.62680435180664 57.92220306396484 C 42.06178283691406 57.96525573730469 42.5069694519043 57.9906120300293 42.95020294189453 57.99760055541992 L 42.95018005371094 57.99960327148438 Z M 23.10454750061035 57.99960327148438 L 18.05131530761719 57.99960327148438 C 15.61443710327148 57.99960327148438 13.25044822692871 57.52238082885742 11.02500343322754 56.58116912841797 C 8.875481605529785 55.67206954956055 6.944992542266846 54.37059020996094 5.287159442901611 52.712890625 C 3.629359245300293 51.05519104003906 2.327781438827515 49.12481307983398 1.418592572212219 46.97536849975586 C 0.4772925972938538 44.7500114440918 3.718397238117177e-06 42.38606643676758 3.718397238117177e-06 39.94920349121094 C 3.718397238117177e-06 35.14873504638672 1.863548159599304 30.62982368469238 5.247348308563232 27.22488975524902 C 8.629626274108887 23.82151222229004 13.13367080688477 21.92967987060547 17.9298152923584 21.89790153503418 C 18.64097023010254 15.90054607391357 21.52402687072754 10.3692684173584 26.04691505432129 6.323857307434082 C 30.60620307922363 2.245857238769531 36.4892463684082 1.635742137295892e-06 42.6123046875 1.635742137295892e-06 C 43.50048065185547 1.635742137295892e-06 44.39636993408203 0.04745719209313393 45.27511596679688 0.1410460770130157 C 42.45388031005859 0.4414794147014618 39.72800445556641 1.216135025024414 37.17319107055664 2.445468187332153 C 34.68821334838867 3.641223907470703 32.43017959594727 5.23434591293335 30.46183776855469 7.180590629577637 C 28.49442672729492 9.125946044921875 26.87629318237305 11.3648567199707 25.65235900878906 13.83515739440918 C 24.39597129821777 16.37096786499023 23.58972549438477 19.08366775512695 23.25601577758789 21.89790153503418 C 18.45980453491211 21.92969131469727 13.95611476898193 23.82120132446289 10.57354831695557 27.22488021850586 C 7.189736843109131 30.62982368469238 5.3262038230896 35.14873504638672 5.3262038230896 39.94920349121094 C 5.3262038230896 42.38603591918945 5.803481578826904 44.74998092651367 6.744792461395264 46.97536849975586 C 7.653992652893066 49.12481307983398 8.955570220947266 51.05519104003906 10.61338138580322 52.7128791809082 C 12.27118110656738 54.37056732177734 14.20165920257568 55.67205810546875 16.35120391845703 56.58116912841797 C 18.4924144744873 57.48675537109375 20.76458168029785 57.96331405639648 23.10455894470215 57.99760055541992 L 23.10454750061035 57.99960327148438 Z M 72.51751708984375 21.1239013671875 L 72.51731109619141 21.12261199951172 C 72.44622802734375 20.65073585510254 72.36014556884766 20.17407989501953 72.26150512695312 19.70592308044434 C 73.12236022949219 19.58938026428223 73.99881744384766 19.5309009552002 74.86740112304688 19.5309009552002 C 75.75839233398438 19.5309009552002 76.65431213378906 19.59244537353516 77.53029632568359 19.71380233764648 C 75.80396270751953 19.95286750793457 74.11782836914062 20.42644691467285 72.51870727539062 21.12337875366211 L 72.51751708984375 21.1239013671875 Z"/>
        </g>
      </g>
      <g class="cls-9" transform="matrix(1, 0, 0, 1, 338.5, 100.5)">
        <path id="Path_1056-2" data-name="Path 1056" class="cls-3" d="M463.936,404.411c-3.137-6.482-13.677-26.289-17.977-35.283-1.236-2.837-7.425-6.266-8.154,3.356s-1.224,30.535-1.224,30.535H424.59s-6.076.087-4.743,5.726c3.224,5.423,13.648,28.876,19.826,37.547,2.333,2.811,6.816,4.128,9.314-1.581.175-9.429-.016-28.657-.016-28.657s4.084.187,10.88,0C465.861,415.81,467.073,410.893,463.936,404.411Z" transform="translate(692.77 653.33) rotate(180)"/>
      </g>
      <g id="Group_31" data-name="Group 31" transform="translate(356 -12)">
        <g class="cls-8" transform="matrix(1, 0, 0, 1, -17.5, 112.5)">
          <g id="clouds-4" data-name="clouds" class="cls-4" transform="translate(183.5 148.5)">
            <path class="cls-6" d="M 107.9388046264648 81.49990081787109 L 53.5509033203125 81.49990081787109 C 52.82345581054688 81.49990081787109 52.08945465087891 81.46411895751953 51.36930465698242 81.39356994628906 L 51.322021484375 81.38893127441406 L 51.27470397949219 81.39328002929688 C 50.50647354125977 81.46403503417969 49.72407150268555 81.49990081787109 48.94920349121094 81.49990081787109 L 25.52040481567383 81.49990081787109 C 22.14255523681641 81.49990081787109 18.86598777770996 80.83844757080078 15.78170490264893 79.533935546875 C 12.80235481262207 78.27378082275391 10.12652206420898 76.46968078613281 7.828505039215088 74.17173004150391 C 5.530455112457275 71.87374877929688 3.726288557052612 69.19791412353516 2.466105222702026 66.21856689453125 C 1.16148853302002 63.13421630859375 0.5000052452087402 59.85751724243164 0.5000052452087402 56.47949981689453 C 0.5000052452087402 53.11528396606445 1.156321883201599 49.8509521484375 2.450705289840698 46.77716827392578 C 3.701005220413208 43.80810165405273 5.491821765899658 41.13861846923828 7.773388385772705 38.84291839599609 C 10.05425548553467 36.54793548583984 12.71182155609131 34.74086761474609 15.6723051071167 33.4719352722168 C 18.73545455932617 32.15896606445312 21.9920711517334 31.4819507598877 25.35167121887207 31.45966720581055 L 25.79290580749512 31.45675086975098 L 25.84487152099609 31.01858329772949 C 26.83628845214844 22.66058349609375 30.85417175292969 14.95226669311523 37.15837097167969 9.313567161560059 C 40.26755523681641 6.532617092132568 43.8055534362793 4.358366966247559 47.67410659790039 2.851233720779419 C 51.67877197265625 1.291067123413086 55.90827178955078 0.5000004172325134 60.2451057434082 0.5000004172325134 C 64.49095153808594 0.5000004172325134 68.63743591308594 1.259150385856628 72.56937408447266 2.756366968154907 C 76.36797332763672 4.202800273895264 79.85780334472656 6.293550491333008 82.94195556640625 8.970517158508301 C 89.17266845703125 14.3786506652832 93.27738952636719 21.82521629333496 94.49995422363281 29.93848419189453 L 94.59700775146484 30.58256721496582 L 95.19412231445312 30.32234954833984 C 98.55976867675781 28.85566711425781 102.1439895629883 28.11199951171875 105.8472061157227 28.11199951171875 C 109.4509735107422 28.11199951171875 112.9466857910156 28.81771659851074 116.2372589111328 30.20955085754395 C 119.4158401489258 31.55401802062988 122.2706069946289 33.47883224487305 124.7222518920898 35.93054962158203 C 127.1739349365234 38.38228225708008 129.0987243652344 41.23713302612305 130.4431762695312 44.41581726074219 C 131.8349914550781 47.70653533935547 132.5407104492188 51.20243453979492 132.5407104492188 54.80640029907227 C 132.5407104492188 61.65625 129.9496917724609 68.16863250732422 125.2449569702148 73.14393615722656 L 125.2305221557617 73.15920257568359 L 125.2174072265625 73.17563629150391 C 123.1921920776367 75.71396636962891 120.5868225097656 77.81121826171875 117.682991027832 79.24063110351562 C 114.6375198364258 80.73976898193359 111.3591079711914 81.49990081787109 107.9388046264648 81.49990081787109 Z"/>
            <path class="cls-7" d="M 107.9388122558594 80.99989318847656 C 111.281867980957 80.99989318847656 114.4859924316406 80.25705718994141 117.4621734619141 78.79202270507812 C 120.3003768920898 77.39491271972656 122.8469543457031 75.34494781494141 124.8265533447266 72.86378479003906 L 124.8527755737305 72.8309326171875 L 124.8816680908203 72.80038452148438 C 129.4982452392578 67.9183349609375 132.0407257080078 61.52795028686523 132.0407257080078 54.80640411376953 C 132.0407257080078 51.26971435546875 131.3482971191406 47.83935165405273 129.982666015625 44.61060333251953 C 128.6634216308594 41.49151229858398 126.7746276855469 38.69007873535156 124.3686981201172 36.28409576416016 C 121.9628067016602 33.87815093994141 119.1614608764648 31.98931312561035 116.04248046875 30.67005920410156 C 112.8138656616211 29.30444145202637 109.3836822509766 28.61200523376465 105.8472061157227 28.61200523376465 C 102.213134765625 28.61200523376465 98.69613647460938 29.34165954589844 95.39386749267578 30.78071403503418 L 94.19964599609375 31.30113220214844 L 94.00553894042969 30.01298713684082 C 92.80068206787109 22.01725959777832 88.75515747070312 14.67833232879639 82.61421203613281 9.348132133483887 C 79.57448577880859 6.709713935852051 76.13504791259766 4.649150371551514 72.39144897460938 3.223641395568848 C 68.51654052734375 1.74815046787262 64.42991638183594 1.000005006790161 60.24510192871094 1.000005006790161 C 55.97061157226562 1.000005006790161 51.80219268798828 1.779604911804199 47.85560989379883 3.317132234573364 C 44.04302978515625 4.802459716796875 40.55609893798828 6.945332050323486 37.49169921875 9.686241149902344 C 31.27839088439941 15.24365997314453 27.3184642791748 22.84053230285645 26.34139251708984 31.07747840881348 L 26.23744583129883 31.95380401611328 L 25.3549919128418 31.95965957641602 C 22.06233787536621 31.98147773742676 18.87088203430176 32.6448974609375 15.86928272247314 33.93147659301758 C 12.96800994873047 35.17504119873047 10.36348247528076 36.94607925415039 8.12802791595459 39.19536972045898 C 5.891900539398193 41.44536972045898 4.136809825897217 44.06153106689453 2.911518812179565 46.97122192382812 C 1.643137097358704 49.98324203491211 1.000009775161743 53.18227767944336 1.000009775161743 56.47949600219727 C 1.000009775161743 59.79024124145508 1.648209810256958 63.00140380859375 2.926609754562378 66.02378845214844 C 4.161591529846191 68.94353485107422 5.929773330688477 71.56594848632812 8.182064056396484 73.81816864013672 C 10.43431854248047 76.07036590576172 13.05673694610596 77.83849334716797 15.97648239135742 79.07342529296875 C 18.99880981445312 80.35173034667969 22.20984649658203 80.99989318847656 25.52041053771973 80.99989318847656 L 48.94919204711914 80.99989318847656 C 49.70893859863281 80.99989318847656 50.47591781616211 80.96472930908203 51.22884750366211 80.89540863037109 L 51.32348251342773 80.88668060302734 L 51.41804504394531 80.89595031738281 C 52.12211990356445 80.96493530273438 52.83971786499023 80.99989318847656 53.55089950561523 80.99989318847656 L 107.9388122558594 80.99989318847656 M 107.9388122558594 81.99989318847656 L 53.55089950561523 81.99989318847656 C 52.79851913452148 81.99989318847656 52.05404663085938 81.96304321289062 51.320556640625 81.89118957519531 C 50.54010009765625 81.96305847167969 49.74840927124023 81.99989318847656 48.94919204711914 81.99989318847656 L 25.52041053771973 81.99989318847656 C 11.42640972137451 81.99989318847656 9.770064025360625e-06 70.57440185546875 9.770064025360625e-06 56.47949600219727 C 9.770064025360625e-06 42.44224166870117 11.33386421203613 31.05258750915527 25.34835433959961 30.95967674255371 C 27.41675567626953 13.5224781036377 42.25219345092773 4.954390078637516e-06 60.24510192871094 4.954390078637516e-06 C 77.85894012451172 4.954390078637516e-06 92.44712066650391 12.95980453491211 94.99437713623047 29.86398696899414 C 98.31908416748047 28.4151496887207 101.9888076782227 27.61200523376465 105.8472061157227 27.61200523376465 C 120.8655014038086 27.61200523376465 133.0407257080078 39.78720474243164 133.0407257080078 54.80640411376953 C 133.0407257080078 62.04055023193359 130.2151489257812 68.61563873291016 125.6082458496094 73.48745727539062 C 121.468879699707 78.67556762695312 115.0922622680664 81.99989318847656 107.9388122558594 81.99989318847656 Z"/>
          </g>
        </g>
        <g id="Subtraction_3-2" data-name="Subtraction 3" class="cls-5" transform="translate(166 261)">
          <path class="cls-6" d="M 25.8784122467041 81.49990844726562 L 25.52041244506836 81.49990844726562 C 22.14256858825684 81.49990844726562 18.86599731445312 80.83846282958984 15.78171157836914 79.533935546875 C 12.80234050750732 78.27378082275391 10.12649726867676 76.46966552734375 7.828512191772461 74.17172241210938 C 5.530455112457275 71.87371826171875 3.726283550262451 69.19789123535156 2.46611213684082 66.21856689453125 C 1.161497712135315 63.13422012329102 0.5000120401382446 59.85752105712891 0.5000120401382446 56.4794921875 C 0.5000120401382446 53.11524963378906 1.156311988830566 49.85092163085938 2.450697660446167 46.77716445922852 C 3.700997829437256 43.8080940246582 5.491797924041748 41.13863754272461 7.773355007171631 38.84297943115234 C 10.05418300628662 36.54804992675781 12.71176910400391 34.74102020263672 15.67228317260742 33.47210693359375 C 18.73551177978516 32.1591796875 21.99218368530273 31.48220825195312 25.3518123626709 31.45999336242676 L 25.79305458068848 31.45707893371582 L 25.84502601623535 31.01889419555664 C 26.83635520935059 22.66076469421387 30.85419845581055 14.95235061645508 37.15841293334961 9.313607215881348 C 40.26761245727539 6.53262186050415 43.80562591552734 4.358364582061768 47.67414093017578 2.85123610496521 C 51.38817596435547 1.404300808906555 55.29568862915039 0.6188734173774719 59.30276870727539 0.5124958753585815 C 56.90545272827148 1.096667647361755 54.57608795166016 1.93046760559082 52.33905410766602 3.006950378417969 C 48.77578353881836 4.721579074859619 45.53798294067383 7.005964756011963 42.71561050415039 9.796664237976074 C 39.89455413818359 12.58605003356934 37.57424163818359 15.79646492004395 35.81914138793945 19.33869361877441 C 34.08203125 22.84457206726074 32.94490432739258 26.5861759185791 32.4365348815918 30.46652030944824 C 29.09833717346191 30.5433406829834 25.86165237426758 31.24455833435059 22.80902671813965 32.55296325683594 C 19.73012542724609 33.87263488769531 16.96642684936523 35.7517204284668 14.59469795227051 38.1380500793457 C 12.22218322753906 40.52518081665039 10.35988330841064 43.30121994018555 9.059512138366699 46.38906478881836 C 7.713026523590088 49.58639144897461 7.030312061309814 52.98129272460938 7.030312061309814 56.4794921875 C 7.030312061309814 59.99210739135742 7.718383312225342 63.39987945556641 9.075397491455078 66.60813903808594 C 10.38602638244629 69.70671844482422 12.26218318939209 72.4893798828125 14.65172672271729 74.87883758544922 C 17.04124069213867 77.268310546875 19.82392692565918 79.14437866210938 22.92248344421387 80.45493316650391 C 23.89026069641113 80.86427307128906 24.87644195556641 81.21277618408203 25.8784122467041 81.49990844726562 Z M 102.9182205200195 29.15534782409668 C 102.8691635131836 28.8656005859375 102.8164901733398 28.57625007629395 102.7604370117188 28.28847503662109 C 103.7804946899414 28.17129898071289 104.8163757324219 28.11200714111328 105.8472137451172 28.11200714111328 C 105.8900909423828 28.11200714111328 105.9329605102539 28.11211013793945 105.9758605957031 28.1123161315918 C 104.9375534057617 28.39962387084961 103.9165496826172 28.74780464172363 102.9182205200195 29.15534782409668 Z"/>
          <path class="cls-7" d="M 22.49686813354492 80.81652069091797 C 19.43120193481445 79.48595428466797 16.67399978637695 77.60816955566406 14.29816913604736 75.23239135742188 C 11.86286926269531 72.79718017578125 9.950740814208984 69.96109008789062 8.614897727966309 66.80290985107422 C 7.231668949127197 63.53269195556641 6.530312061309814 60.05939483642578 6.530312061309814 56.4794921875 C 6.530312061309814 52.91429138183594 7.226212024688721 49.45409393310547 8.598697662353516 46.19500732421875 C 9.924083709716797 43.04776382446289 11.82211208343506 40.21842193603516 14.24006938934326 37.78559494018555 C 16.6276912689209 35.38325119018555 19.40529632568359 33.4852409362793 22.49732780456543 32.14289093017578 C 20.21389389038086 32.42256546020508 17.99392700195312 33.02101898193359 15.86926937103271 33.93166351318359 C 12.96795463562012 35.17520904541016 10.36341190338135 36.94619369506836 8.127997398376465 39.19544982910156 C 5.891869068145752 41.44539260864258 4.136797904968262 44.0615348815918 2.911497831344604 46.97122192382812 C 1.643126249313354 49.98322296142578 1.000012040138245 53.18226623535156 1.000012040138245 56.4794921875 C 1.000012040138245 59.79024887084961 1.648212075233459 63.00140762329102 2.92661190032959 66.02379608154297 C 4.161569118499756 68.94351959228516 5.929754734039307 71.56592559814453 8.18205451965332 73.81816101074219 C 10.43428325653076 76.07035064697266 13.05671215057373 77.83847808837891 15.97648334503174 79.07343292236328 C 18.06927680969238 79.95859527587891 20.25272178649902 80.54163360595703 22.49686813354492 80.81652069091797 M 26.37495994567871 30.80555725097656 C 28.20544624328613 30.33027458190918 30.08510208129883 30.05399894714355 31.99853515625 29.97982215881348 C 32.53958892822266 26.19535827636719 33.67250442504883 22.5449047088623 35.37111282348633 19.11670684814453 C 37.15082550048828 15.52482223510742 39.50359725952148 12.2694787979126 42.36407089233398 9.441122055053711 C 45.22586822509766 6.611422061920166 48.50901031494141 4.295064926147461 52.12225341796875 2.556393384933472 C 52.95550918579102 2.155423641204834 53.80107116699219 1.787784934043884 54.65839004516602 1.453560352325439 C 52.33506774902344 1.83562707901001 50.0606575012207 2.458094596862793 47.85565567016602 3.31713604927063 C 44.04309844970703 4.802450180053711 40.55618286132812 6.94533634185791 37.49174118041992 9.686293601989746 C 31.34703826904297 15.18235492706299 27.40622901916504 22.67363929748535 26.37495994567871 30.80555725097656 M 60.77976989746094 81.99990844726562 L 56.60231018066406 81.99990844726562 C 57.34598159790039 81.99603271484375 58.10255432128906 81.96006774902344 58.85101318359375 81.89100646972656 C 59.48674011230469 81.95340728759766 60.13561248779297 81.98936462402344 60.77978515625 81.99789428710938 L 60.77976989746094 81.99990844726562 Z M 32.72612762451172 81.99990844726562 L 25.52041244506836 81.99990844726562 C 22.07528305053711 81.99990844726562 18.73318290710449 81.32516479492188 15.58694076538086 79.99443817138672 C 12.54798316955566 78.70907592773438 9.818726539611816 76.86901092529297 7.474955081939697 74.52527618408203 C 5.131155014038086 72.18153381347656 3.290997743606567 69.45229339599609 2.005612134933472 66.41335296630859 C 0.6747977137565613 63.26705169677734 1.20178219731315e-05 59.92481994628906 1.20178219731315e-05 56.4794921875 C 1.20178219731315e-05 53.04825210571289 0.6694977283477783 49.71863555908203 1.989883422851562 46.58312225341797 C 3.26519775390625 43.55464935302734 5.09171199798584 40.8319091796875 7.418712139129639 38.49052047729492 C 9.744969367980957 36.14987945556641 12.45561218261719 34.30682373046875 15.47531223297119 33.01253509521484 C 18.60005569458008 31.67325019836426 21.9218692779541 30.98266410827637 25.34851264953613 30.96000671386719 C 26.35419845581055 22.48083686828613 30.43032646179199 14.6606502532959 36.82506942749023 8.940936088562012 C 39.97904205322266 6.119907379150391 43.56814193725586 3.914278984069824 47.49264144897461 2.385350465774536 C 51.55539703369141 0.8025504350662231 55.84593963623047 7.551792805315927e-06 60.24511337280273 7.551792805315927e-06 C 61.50158309936523 7.551792805315927e-06 62.76836776733398 0.06706469506025314 64.01028442382812 0.1993504017591476 C 60.02093887329102 0.6242075562477112 56.1671257019043 1.719721794128418 52.55587005615234 3.457493305206299 C 49.04255676269531 5.148078918457031 45.85009765625 7.40050745010376 43.06716918945312 10.15220737457275 C 40.28552627563477 12.90262222290039 37.9976692199707 16.06807899475098 36.26715469360352 19.56067848205566 C 34.49072647094727 23.14593696594238 33.35071182250977 26.98122215270996 32.87881088256836 30.96000671386719 C 29.45273971557617 30.98266410827637 26.13138389587402 31.67293548583984 23.0059986114502 33.01253509521484 C 19.98629760742188 34.30682373046875 17.27565574645996 36.14987945556641 14.9493408203125 38.49052047729492 C 12.62225532531738 40.83193588256836 10.79566955566406 43.55467987060547 9.520312309265137 46.58312225341797 C 8.199854850769043 49.71866607666016 7.530312061309814 53.04826354980469 7.530312061309814 56.4794921875 C 7.530312061309814 59.92480850219727 8.205083847045898 63.26705169677734 9.535898208618164 66.41335296630859 C 10.82131195068359 69.45230865478516 12.66146945953369 72.18156433105469 15.00526905059814 74.52527618408203 C 17.34904098510742 76.86899566650391 20.07829856872559 78.70907592773438 23.11725425720215 79.99443817138672 C 26.16324043273926 81.28277587890625 29.39614105224609 81.95683288574219 32.72613906860352 81.99789428710938 L 32.72612762451172 81.99990844726562 Z M 102.5252838134766 29.86380767822266 L 102.5251007080078 29.86250686645508 C 102.4244155883789 29.19452095031738 102.3026580810547 28.52053642272949 102.1632537841797 27.85929298400879 C 103.3784255981445 27.6948070526123 104.6175994873047 27.61200714111328 105.8472137451172 27.61200714111328 C 107.1069946289062 27.61200714111328 108.3735961914062 27.69897842407227 109.6118087768555 27.87050819396973 C 107.1704254150391 28.20857810974121 104.7865676879883 28.87837982177734 102.526496887207 29.86327934265137 L 102.5252838134766 29.86380767822266 Z"/>
        </g>
      </g>
    </g>
  </g>
</svg>
